<svg width="44" height="40" viewBox="0 0 44 40" fill="none" xmlns="http://www.w3.org/2000/svg">
<rect width="44" height="40" rx="3" fill="#FD7E14"/>
<path fill-rule="evenodd" clip-rule="evenodd" d="M9.92856 24.5714C9.92856 23.5457 10.76 22.7143 11.7857 22.7143H14.5714C15.5971 22.7143 16.4286 23.5457 16.4286 24.5714V29.2143C16.4286 30.24 15.5971 31.0714 14.5714 31.0714H11.7857C10.76 31.0714 9.92856 30.24 9.92856 29.2143V24.5714ZM14.5714 24.9428C14.5714 24.7377 14.4051 24.5714 14.2 24.5714H12.1571C11.952 24.5714 11.7857 24.7377 11.7857 24.9428V28.8428C11.7857 29.048 11.952 29.2143 12.1571 29.2143H14.2C14.4051 29.2143 14.5714 29.048 14.5714 28.8428V24.9428Z" fill="white"/>
<path fill-rule="evenodd" clip-rule="evenodd" d="M18.2857 8.78572C18.2857 7.76004 19.1171 6.92857 20.1428 6.92857H22.9286C23.9543 6.92857 24.7857 7.76004 24.7857 8.78572V29.2143C24.7857 30.24 23.9543 31.0714 22.9286 31.0714H20.1428C19.1171 31.0714 18.2857 30.24 18.2857 29.2143V8.78572ZM22.9286 9.15714C22.9286 8.95201 22.7623 8.78572 22.5571 8.78572H20.5143C20.3092 8.78572 20.1428 8.95201 20.1428 9.15714V28.8428C20.1428 29.048 20.3092 29.2143 20.5143 29.2143H22.5571C22.7623 29.2143 22.9286 29.048 22.9286 28.8428V9.15714Z" fill="white"/>
<path fill-rule="evenodd" clip-rule="evenodd" d="M26.6429 16.2143C26.6429 15.1886 27.4743 14.3571 28.5 14.3571H31.2857C32.3114 14.3571 33.1429 15.1886 33.1429 16.2143V29.2143C33.1429 30.24 32.3114 31.0714 31.2857 31.0714H28.5C27.4743 31.0714 26.6429 30.24 26.6429 29.2143V16.2143ZM31.2857 16.5857C31.2857 16.3806 31.1194 16.2143 30.9143 16.2143H28.8714C28.6663 16.2143 28.5 16.3806 28.5 16.5857V28.8429C28.5 29.048 28.6663 29.2143 28.8714 29.2143H30.9143C31.1194 29.2143 31.2857 29.048 31.2857 28.8429V16.5857Z" fill="white"/>
</svg>
