<svg width="23" height="20" viewBox="0 0 23 20" fill="none" xmlns="http://www.w3.org/2000/svg">
<path d="M11.5 5C11.5 3.93913 11.0786 2.92172 10.3284 2.17157C9.57828 1.42143 8.56087 1 7.5 1H1.5V16H8.5C9.29565 16 10.0587 16.3161 10.6213 16.8787C11.1839 17.4413 11.5 18.2044 11.5 19M11.5 5V19M11.5 5C11.5 3.93913 11.9214 2.92172 12.6716 2.17157C13.4217 1.42143 14.4391 1 15.5 1H21.5V16H14.5C13.7044 16 12.9413 16.3161 12.3787 16.8787C11.8161 17.4413 11.5 18.2044 11.5 19" stroke="#FFFFF0" stroke-width="2" stroke-linecap="round" stroke-linejoin="round"/>
</svg>
