<svg width="48" height="48" viewBox="0 0 48 48" fill="none" xmlns="http://www.w3.org/2000/svg">
<path d="M3 13C3 6.92486 7.92486 2 14 2C20.0752 2 25 6.92486 25 13C25 19.0751 20.0752 24 14 24C7.92486 24 3 19.0751 3 13Z" fill="#FFFFF0"/>
<path d="M28.9998 13C28.9998 16.0007 28.1186 18.7956 26.601 21.14C28.5548 22.917 31.1508 24 33.9998 24C40.075 24 44.9998 19.0751 44.9998 13C44.9998 6.92486 40.075 2 33.9998 2C31.1508 2 28.5548 3.08306 26.601 4.85992C28.1186 7.20442 28.9998 9.99932 28.9998 13Z" fill="#115ED4"/>
<path d="M0 36C0 31.5818 3.58172 28 8 28H20C24.4182 28 28 31.5818 28 36V44C28 45.1046 27.1046 46 26 46H2C0.895432 46 0 45.1046 0 44V36Z" fill="#FFFFF0"/>
<path d="M32.0001 36V46H46.0001C47.1045 46 48.0001 45.1046 48.0001 44V36C48.0001 31.5818 44.4183 28 40.0001 28H28.9445C30.8445 30.123 32.0001 32.9266 32.0001 36Z" fill="#115ED4"/>
</svg>
