<svg width="30" height="17" viewBox="0 0 30 17" fill="none" xmlns="http://www.w3.org/2000/svg">
<path d="M3.07528 16.0909C2.69176 16.0909 2.33191 16.0601 1.99574 15.9986C1.6643 15.9418 1.38968 15.8684 1.17188 15.7784L1.85369 13.5199C2.20881 13.6288 2.52841 13.688 2.8125 13.6974C3.10133 13.7069 3.34991 13.6406 3.55824 13.4986C3.77131 13.3565 3.94413 13.1151 4.0767 12.7741L4.25426 12.3125L0.340909 1.09091H3.52273L5.78125 9.10227H5.89489L8.17472 1.09091H11.3778L7.13778 13.179C6.93419 13.7661 6.6572 14.2775 6.30682 14.7131C5.96117 15.1534 5.5232 15.492 4.9929 15.7287C4.46259 15.9702 3.82339 16.0909 3.07528 16.0909Z" fill="#FD7E14"/>
<path d="M13.4261 12V1.09091H16.3097V3.01562H16.4375C16.6648 2.37642 17.0436 1.87216 17.5739 1.50284C18.1042 1.13352 18.7386 0.948864 19.4773 0.948864C20.2254 0.948864 20.8622 1.13589 21.3878 1.50994C21.9134 1.87926 22.2637 2.38116 22.4389 3.01562H22.5526C22.7751 2.39062 23.1776 1.8911 23.7599 1.51705C24.3471 1.13826 25.0407 0.948864 25.8409 0.948864C26.8589 0.948864 27.6851 1.2732 28.3196 1.92188C28.9588 2.56581 29.2784 3.47964 29.2784 4.66335V12H26.2599V5.25994C26.2599 4.65388 26.099 4.19934 25.777 3.89631C25.455 3.59328 25.0526 3.44176 24.5696 3.44176C24.0204 3.44176 23.5919 3.61695 23.2841 3.96733C22.9763 4.31297 22.8224 4.76989 22.8224 5.33807V12H19.8892V5.19602C19.8892 4.66098 19.7353 4.23485 19.4276 3.91761C19.1245 3.60038 18.7244 3.44176 18.2273 3.44176C17.8911 3.44176 17.5881 3.52699 17.3182 3.69744C17.053 3.86316 16.8423 4.09754 16.6861 4.40057C16.5298 4.69886 16.4517 5.04924 16.4517 5.4517V12H13.4261Z" fill="#FFFFF0"/>
</svg>
