<svg width="26" height="26" viewBox="0 0 26 26" fill="none" xmlns="http://www.w3.org/2000/svg">
<path d="M15.4196 21.7739C15.4196 16.9837 18.89 17.3259 18.89 12.8289C18.89 9.99389 17.1792 6.96334 13.22 6.96334C9.06516 6.96334 7.01222 9.50509 7.01222 12.8289C7.01222 16.9837 10.6782 16.9348 10.6782 21.7739M15.4196 21.7739C13.0244 21.7739 12.8778 21.7739 10.6782 21.7739M15.4196 21.7739C15.4196 23.9246 15.576 25 12.8289 25C10.4338 25 10.6782 23.9246 10.6782 21.7739M6.76782 6.96334L4.47047 4.66599M4.47047 13.0733H1M21.5295 13.0733H25M12.8289 4.66599V1M18.89 6.96334L21.5295 4.32383M10.0916 12.3401C9.99389 11.4603 11.2648 9.84725 13.0733 9.99389" stroke="white" stroke-width="2" stroke-linecap="round"/>
</svg>
