<svg width="120" height="80" viewBox="0 0 120 80" fill="none" xmlns="http://www.w3.org/2000/svg">
<path d="M74.276 20.0957C74.1512 20.0957 74.0271 20.1266 73.9023 20.1864L70.7302 21.3938C70.3894 21.5186 70.1414 21.6186 69.9865 21.6958C69.832 21.7736 69.7552 21.8897 69.7552 22.0441C69.7552 22.2612 69.8704 22.4017 70.1026 22.4632C70.3342 22.5247 70.5989 22.6095 70.8926 22.7181C71.187 22.8267 71.4505 23.013 71.6826 23.2759C71.9155 23.5395 72.031 23.9808 72.031 24.6002V47.926C72.031 48.4212 71.9763 48.7929 71.8677 49.0408C71.7597 49.2881 71.5971 49.4754 71.3806 49.5995C71.1635 49.7226 70.9148 49.8156 70.6368 49.8771C70.3581 49.9387 70.0646 50.0162 69.7551 50.1103C69.5078 50.1712 69.3066 50.2414 69.151 50.318C68.996 50.3958 68.9188 50.5429 68.9188 50.7606C68.9188 50.9766 69.0659 51.1079 69.3596 51.1543C69.654 51.1996 69.8786 51.2242 70.0336 51.2242C70.4364 51.2242 70.9565 51.1945 71.591 51.1353C72.2273 51.076 72.826 51.0455 73.388 51.0455C73.9174 51.0455 74.4304 51.076 74.9273 51.1353C75.4254 51.1945 75.9531 51.2242 76.511 51.2242C76.7589 51.2242 76.9985 51.1926 77.2312 51.1316C77.4629 51.0695 77.5795 50.9468 77.5795 50.7615C77.5795 50.5444 77.4474 50.4137 77.185 50.3679C76.922 50.3215 76.6035 50.236 76.2326 50.1112C76.0148 50.0508 75.7905 49.9196 75.5577 49.7193C75.3261 49.5179 75.2112 49.1553 75.2112 48.6299V42.0507C75.2112 41.8969 75.3194 41.8185 75.5359 41.8185C75.6288 41.8185 75.7686 41.9118 75.955 42.097L82.9678 48.722C83.308 49.0622 83.4776 49.3099 83.4776 49.4631C83.4776 49.6181 83.3928 49.7573 83.2227 49.8804C83.0515 50.004 82.8441 50.0812 82.5951 50.1107C82.1927 50.1734 81.8678 50.2437 81.6199 50.3203C81.3726 50.3981 81.2499 50.544 81.2499 50.7612C81.2499 50.9777 81.3569 51.1075 81.5746 51.1539C81.7911 51.1992 82.147 51.2238 82.6423 51.2238C83.199 51.2238 83.7561 51.1941 84.314 51.1349C84.8707 51.0757 85.4597 51.0451 86.0791 51.0451C86.7915 51.0451 87.4416 51.0757 88.0303 51.1349C88.6183 51.1941 89.1606 51.2238 89.6558 51.2238C90.4609 51.2238 90.8631 51.0697 90.8631 50.7603C90.8631 50.6058 90.7634 50.4812 90.5619 50.3883C90.3599 50.296 90.0894 50.1808 89.7492 50.0409C89.4084 49.9016 89.013 49.7232 88.5636 49.5067C88.1143 49.289 87.6583 48.9655 87.1939 48.5325L79.1588 41.2433C79.0961 41.1823 79.0183 41.097 78.9266 40.9884C78.8331 40.8799 78.7869 40.7488 78.7869 40.5938C78.7869 40.4702 79.1896 40.1377 79.9942 39.596C80.7988 39.0544 81.7206 38.4748 82.7581 37.8553C83.7955 37.2365 84.8009 36.6563 85.7768 36.1147C86.7521 35.5731 87.4102 35.2253 87.7516 35.0697C87.9054 35.0082 88.1142 34.9383 88.3784 34.8611C88.6372 34.7856 88.8932 34.7005 89.1458 34.6062C89.3925 34.5139 89.6004 34.4127 89.7716 34.3041C89.9417 34.1956 90.0265 34.0795 90.0265 33.9558C90.0265 33.7085 89.9348 33.5529 89.749 33.4914C89.5626 33.4299 89.3617 33.398 89.1457 33.398C88.6802 33.398 88.1303 33.4138 87.4957 33.4433C86.8606 33.4729 86.2477 33.4887 85.6607 33.4887C85.0402 33.4887 84.4134 33.4729 83.7795 33.4433C83.1449 33.4137 82.5799 33.398 82.0841 33.398C81.9291 33.398 81.7826 33.4453 81.6433 33.5377C81.504 33.6311 81.4346 33.7391 81.4346 33.8633C81.4346 34.0496 81.5262 34.1968 81.7132 34.306C81.8983 34.4139 82.1001 34.5218 82.3172 34.6298C82.5344 34.7383 82.7344 34.8782 82.9214 35.0489C83.106 35.2195 83.1989 35.4602 83.1989 35.7691C83.1989 35.9247 83.0205 36.1487 82.6646 36.443C82.3088 36.7368 81.8683 37.0707 81.3412 37.4417C80.8158 37.8144 80.2347 38.2011 79.5996 38.6045C78.9645 39.0074 78.3691 39.371 77.8118 39.6966C77.2544 40.0223 76.7666 40.2853 76.3486 40.4867C75.9306 40.6881 75.6905 40.7888 75.6284 40.7888C75.3503 40.7888 75.2112 40.5407 75.2112 40.045V20.9327C75.2112 20.5919 75.1573 20.3676 75.047 20.2596C74.939 20.1505 74.8216 20.0955 74.6968 20.0955L74.276 20.0957ZM27.3272 22.3362C25.8381 22.3362 24.5128 22.3802 23.3506 22.4695C22.1872 22.5595 21.0326 22.6047 19.8855 22.6047H15.6576C15.502 22.6047 15.3245 22.6117 15.1224 22.6274C14.9269 22.642 14.733 22.6732 14.5428 22.7208C14.357 22.7679 14.1945 22.846 14.0557 22.954C13.9152 23.0625 13.8462 23.209 13.8462 23.3948C13.8462 23.6427 13.9459 23.791 14.1473 23.8374C14.3488 23.8833 14.7129 23.9374 15.2394 23.9989C15.5482 24.0303 15.8808 24.054 16.2372 24.0696C16.5793 24.0838 16.9205 24.1147 17.2595 24.1622C17.584 24.2086 17.8548 24.2862 18.0713 24.3953C18.2884 24.5033 18.3969 24.6653 18.3969 24.8824V46.7331C18.3969 47.4146 18.3353 47.9408 18.211 48.3123C18.0873 48.685 17.9254 48.9702 17.7239 49.1722C17.5225 49.3736 17.2981 49.514 17.0508 49.5912C16.8029 49.669 16.5549 49.7237 16.3071 49.7545C15.5947 49.8782 15.1309 50.0332 14.9138 50.219C14.6967 50.4041 14.5891 50.591 14.5891 50.7768C14.5891 51.0159 14.6967 51.1499 14.9138 51.1795C15.1309 51.2092 15.3002 51.224 15.4245 51.224C15.9818 51.224 16.6471 51.1943 17.421 51.1351C18.1954 51.0753 18.924 51.0453 19.6061 51.0453H30.5828C32.5671 51.0453 34.4351 50.7119 36.1877 50.0466C37.9403 49.3808 39.4673 48.4756 40.7694 47.329C42.0709 46.183 43.1017 44.836 43.8617 43.2871C44.6216 41.7394 45.0018 40.0975 45.0018 38.3635C45.0018 35.5757 44.5368 33.1675 43.6068 31.1388C42.6762 29.1109 41.4123 27.4462 39.8152 26.1453C38.2182 24.8449 36.35 23.8847 34.2113 23.2653C32.0709 22.6459 29.7772 22.3362 27.3272 22.3362ZM26.2986 23.724C27.2617 23.724 28.2875 23.8401 29.3754 24.0723C30.4628 24.3045 31.5353 24.6693 32.5919 25.1644C33.6485 25.6602 34.6664 26.2791 35.6451 27.0221C36.6234 27.7652 37.4871 28.6491 38.2331 29.6708C38.9796 30.6931 39.5688 31.8545 40.0037 33.1549C40.4391 34.4553 40.6568 35.896 40.6568 37.4745C40.6568 39.0547 40.4391 40.4565 40.0037 41.6797C39.5688 42.9023 38.9948 43.9716 38.2802 44.8853C37.565 45.7991 36.7571 46.5803 35.8555 47.2311C34.954 47.8818 34.0531 48.4004 33.1516 48.7876C32.2506 49.1748 31.3798 49.4608 30.5409 49.6466C29.7015 49.8335 28.9715 49.926 28.3504 49.926C27.6038 49.926 26.8744 49.8335 26.1598 49.6466C25.444 49.4608 24.8074 49.1748 24.2477 48.7876C23.6881 48.4004 23.2375 47.9131 22.8961 47.3245C22.5548 46.7364 22.3837 46.0385 22.3837 45.2327V25.2108C22.3837 25.0564 22.4065 24.8859 22.4535 24.7001C22.4999 24.5149 22.6471 24.352 22.8961 24.2121C23.1446 24.0728 23.5334 23.9563 24.0617 23.8628C24.5894 23.7706 25.3349 23.724 26.2986 23.724ZM99.0102 32.637C97.5566 32.637 96.303 32.9476 95.2522 33.5676C94.2009 34.1876 93.3268 34.9707 92.6308 35.917C91.9347 36.8632 91.418 37.9175 91.0778 39.0809C90.7377 40.2436 90.5672 41.3669 90.5672 42.4525C90.5672 45.3685 91.2665 47.6703 92.6661 49.3608C94.0652 51.0507 96.0505 51.8961 98.6212 51.8961C99.8287 51.8961 100.858 51.7171 101.71 51.36C102.561 51.003 103.265 50.5977 103.822 50.1472C104.38 49.6967 104.782 49.2767 105.03 48.89C105.279 48.5028 105.403 48.2633 105.403 48.1698C105.403 47.9225 105.262 47.7988 104.984 47.7988C104.798 47.7988 104.627 47.8997 104.473 48.1018C104.317 48.3026 104.101 48.5185 103.822 48.7513C103.544 48.9841 103.157 49.1917 102.661 49.3781C102.165 49.5644 101.47 49.6566 100.571 49.6566C99.1469 49.6566 97.9925 49.4328 97.1101 48.9817C96.2277 48.5318 95.5474 47.9487 95.0673 47.2346C94.5872 46.5217 94.2623 45.6991 94.0922 44.7674C93.9215 43.8368 93.8373 42.8755 93.8373 41.881V40.9032C93.8373 40.6245 93.8663 40.4066 93.9262 40.251H105.227C105.629 40.251 105.884 40.1817 105.991 40.0424C106.099 39.903 106.154 39.617 106.154 39.1834C106.154 38.6887 106.03 38.0691 105.782 37.3266C105.535 36.5835 105.133 35.8638 104.576 35.1677C104.02 34.4711 103.285 33.875 102.372 33.3798C101.46 32.8841 100.34 32.637 99.0102 32.637ZM47.3876 33.398C47.0468 33.398 46.7687 33.4143 46.5521 33.4451C46.335 33.4765 46.2265 33.5993 46.2265 33.8171C46.2265 33.9721 46.3186 34.0887 46.505 34.1654C46.6907 34.2432 47.0631 34.3587 47.6198 34.5137C47.8984 34.5758 48.1935 34.6536 48.5024 34.7459C48.8118 34.8388 48.9668 35.0564 48.9668 35.3972C48.9668 36.0793 48.9592 36.8459 48.9441 37.6976C48.929 38.5492 48.9223 39.4249 48.9223 40.3236C48.9223 41.192 48.9141 42.0587 48.8996 42.926C48.8855 43.716 48.8782 44.5061 48.8778 45.2962C48.8778 46.2883 48.962 47.1877 49.1327 47.9929C49.3034 48.7981 49.5967 49.4948 50.0153 50.0846C50.4339 50.6733 51.0068 51.1208 51.7342 51.4308C52.4622 51.7402 53.3689 51.8961 54.4527 51.8961C55.3827 51.8961 56.211 51.7507 56.939 51.4616C57.667 51.1725 58.3016 50.8505 58.8439 50.4947C59.3855 50.1388 59.8275 49.8209 60.1682 49.5422C60.509 49.2642 60.7719 49.1241 60.9583 49.1241C61.1754 49.1241 61.283 49.3101 61.283 49.681V50.7496C61.283 50.9667 61.2976 51.1439 61.3284 51.2838C61.3579 51.4237 61.4631 51.4925 61.6431 51.4925C61.862 51.4925 62.4402 51.4014 63.3784 51.2185C64.3165 51.0351 65.6053 50.8207 67.2471 50.5763C67.5873 50.5142 67.828 50.4543 67.9673 50.3922C68.1055 50.3318 68.1768 50.2092 68.1768 50.0257C68.1768 49.7813 67.9976 49.6441 67.6417 49.6139C67.2852 49.5825 66.6585 49.5668 65.7604 49.5668C65.5439 49.5668 65.2877 49.5066 64.9939 49.3817C64.699 49.2581 64.5531 48.9483 64.5531 48.4519C64.5531 46.0979 64.5825 43.7523 64.6429 41.4142C64.7025 39.0679 64.7325 36.721 64.7327 34.374C64.7327 33.941 64.6082 33.6704 64.358 33.5613C64.1102 33.4528 63.908 33.398 63.753 33.398C63.2936 33.3981 62.8344 33.4132 62.376 33.4434C61.9185 33.4732 61.4602 33.488 61.0018 33.4878C60.5989 33.4878 60.2038 33.473 59.8172 33.4434C59.4233 33.4132 59.0284 33.3981 58.6334 33.398C58.3855 33.398 58.153 33.4223 57.9359 33.4688C57.7193 33.5152 57.6111 33.6149 57.6111 33.7699C57.6111 33.9557 57.7889 34.1101 58.1454 34.2343C58.5013 34.358 58.7723 34.4516 58.9581 34.5137C59.5154 34.6687 59.9492 34.7848 60.258 34.8621C60.5674 34.9399 60.8075 35.0091 60.9782 35.0707C61.1483 35.1322 61.2574 35.2098 61.3039 35.3038C61.3497 35.3961 61.3737 35.5049 61.3737 35.6286C61.3737 37.3005 61.358 38.957 61.3284 40.5975C61.2977 42.2546 61.2826 43.9119 61.283 45.5693C61.283 46.0331 61.2286 46.5145 61.1207 47.0097C61.0132 47.5055 60.7732 47.9459 60.4022 48.3331C60.0319 48.7198 59.4822 49.0368 58.7559 49.2847C58.0297 49.5332 57.0174 49.6575 55.7199 49.6575C54.5763 49.6575 53.6794 49.401 53.0305 48.8901C52.3808 48.3792 52.0571 47.6443 52.0571 46.6841C52.0571 44.6092 52.0717 42.5425 52.1024 40.4834C52.1315 38.4237 52.146 36.3568 52.146 34.281C52.146 33.9414 52.1076 33.7095 52.0299 33.5853C51.9515 33.4611 51.7565 33.3984 51.4448 33.3984C51.1023 33.3984 50.7593 33.4142 50.4162 33.4438C50.0741 33.4734 49.7309 33.4882 49.3875 33.4882C49.0532 33.4886 48.7191 33.4738 48.3861 33.4438C48.0541 33.4135 47.7208 33.3984 47.3874 33.3984L47.3876 33.398ZM99.6709 33.7563C100.662 33.7563 101.482 34.0273 102.133 34.569C102.782 35.1106 103.108 35.783 103.108 36.5881C103.108 37.0218 103.054 37.3772 102.945 37.6558C102.837 37.9345 102.613 38.1658 102.272 38.3515C101.932 38.5373 101.451 38.6698 100.832 38.747C100.212 38.8248 99.3919 38.8631 98.3701 38.8631C97.3792 38.8631 96.6123 38.8546 96.0707 38.8395C95.529 38.8244 95.1263 38.801 94.8634 38.7697C94.6004 38.7395 94.4445 38.7 94.398 38.6536C94.3527 38.6077 94.3291 38.5379 94.3291 38.445C94.3291 38.074 94.4531 37.6253 94.701 37.0988C94.9483 36.5729 95.296 36.062 95.7459 35.5667C96.1953 35.0721 96.7527 34.6469 97.4186 34.2905C98.0838 33.9352 98.8349 33.7563 99.6709 33.7563ZM75.8644 54.6897C74.9332 54.6897 74.1972 55.2241 74.1972 56.0984C74.1972 57.0017 74.7089 57.2685 75.7782 57.586C76.6229 57.8391 76.9193 58.034 76.9193 58.4242C76.9193 58.9159 76.5802 59.1608 75.8725 59.1608C75.3959 59.1608 74.8969 58.9298 74.5573 58.5612L74.0167 59.0882C74.4417 59.5869 75.0778 59.9045 75.8145 59.9045C77.1074 59.9045 77.684 59.2831 77.684 58.3734C77.684 57.4707 77.0637 57.1525 76.0658 56.8495C75.1927 56.59 74.9619 56.4162 74.9619 56.0622C74.9619 55.7231 75.2145 55.4336 75.8072 55.4336C76.3053 55.4336 76.6662 55.5929 76.9837 55.918L77.5189 55.3755C77.0713 54.9424 76.5501 54.6897 75.8644 54.6897ZM17.1146 54.7686V57.7021C17.1146 59.0953 17.7647 59.9045 19.014 59.9045C20.2708 59.9045 20.957 59.1325 20.957 57.7166V54.7686H20.1978V57.731C20.1978 58.6552 19.8227 59.1452 19.0285 59.1452C18.2698 59.1452 17.8729 58.6331 17.8729 57.6793V54.7685L17.1146 54.7686ZM37.5394 54.7686V59.8247H38.2977V54.7686H37.5394ZM83.9083 54.7686V59.8247H84.6666V54.7686H83.9083ZM100.15 54.7686L101.964 57.8245V59.8247H102.723V57.8246L104.534 54.7686H103.661L102.866 56.1701C102.686 56.4957 102.433 56.98 102.346 57.1669C102.259 56.98 102 56.4743 101.827 56.1637L101.039 54.7686H100.15ZM27.2936 54.7698V59.8249H28.0293V57.2034C28.0293 56.9219 28.0229 56.2209 28.0229 56.0333C28.1019 56.1634 28.276 56.4671 28.3985 56.6547L30.4131 59.8249H31.136V54.7698H30.3986V57.3767C30.3986 57.6588 30.4067 58.3805 30.4067 58.5686C30.3342 58.4385 30.1177 58.0634 29.9877 57.8538L28.0665 54.7698H27.2936ZM44.3891 54.7698L46.1434 59.8249H46.9453L48.6787 54.7698H47.8705L46.8301 57.9835C46.736 58.2796 46.5909 58.7342 46.5479 58.916C46.5044 58.7342 46.3602 58.2868 46.2668 57.9907L45.2118 54.7697L44.3891 54.7698ZM54.7307 54.7698V59.8249H58.0969V59.0883H55.49V57.4928H56.9413V56.7562H55.49V55.5063H57.988V54.7697L54.7307 54.7698ZM64.2288 54.7698V59.8249H64.9727V57.8248H66.1138L67.117 59.8249H67.9923L66.9591 57.7595C67.6453 57.5859 68.0712 57.0878 68.0712 56.2791C68.0712 55.2382 67.3279 54.7698 66.4466 54.7698H64.2288ZM90.7574 54.7698V55.5135H92.2305V59.8249H92.9889V55.5135H94.4619V54.7698H90.7574ZM64.9725 55.4845H66.4465C66.9591 55.4845 67.3055 55.7738 67.3055 56.3008C67.3055 56.85 66.9522 57.11 66.4465 57.11H64.9725V55.4845Z" fill="white"/>
</svg>
