<svg width="24" height="24" viewBox="0 0 24 24" fill="none" xmlns="http://www.w3.org/2000/svg">
<path fill-rule="evenodd" clip-rule="evenodd" d="M3.4 4H20.6C21.2365 4 21.847 4.25286 22.2971 4.70294C22.7471 5.15303 23 5.76348 23 6.4V17.6C23 18.2365 22.7471 18.847 22.2971 19.2971C21.847 19.7471 21.2365 20 20.6 20H3.4C2.76348 20 2.15303 19.7471 1.70294 19.2971C1.25286 18.847 1 18.2365 1 17.6V6.4C1 5.76348 1.25286 5.15303 1.70294 4.70294C2.15303 4.25286 2.76348 4 3.4 4ZM5 9C5 8.73478 5.10536 8.48043 5.29289 8.29289C5.48043 8.10536 5.73478 8 6 8H14C14.2652 8 14.5196 8.10536 14.7071 8.29289C14.8946 8.48043 15 8.73478 15 9C15 9.26522 14.8946 9.51957 14.7071 9.70711C14.5196 9.89464 14.2652 10 14 10H6C5.73478 10 5.48043 9.89464 5.29289 9.70711C5.10536 9.51957 5 9.26522 5 9ZM5 12C5 11.7348 5.10536 11.4804 5.29289 11.2929C5.48043 11.1054 5.73478 11 6 11H14C14.2652 11 14.5196 11.1054 14.7071 11.2929C14.8946 11.4804 15 11.7348 15 12C15 12.2652 14.8946 12.5196 14.7071 12.7071C14.5196 12.8946 14.2652 13 14 13H6C5.73478 13 5.48043 12.8946 5.29289 12.7071C5.10536 12.5196 5 12.2652 5 12Z" fill="#FD7E14"/>
</svg>
