<svg width="165" height="70" viewBox="0 0 165 70" fill="none" xmlns="http://www.w3.org/2000/svg">
<path d="M17.1338 11.6963H66.4095V60.9712H17.1338V11.6963Z" fill="white"/>
<path d="M29.6339 48.1509H34.4462V51.5038H26.3916V21.1412H29.6339V48.1509ZM57.2055 24.4554H52.2531V34.1898H56.8814V37.7324H52.2531V48.1471H57.2055V51.5038H49.0108V21.145H57.2055V24.4554ZM37.2713 51.4928V48.171L38.2871 48.1672C39.6209 48.1596 41.8773 47.2309 42.2104 45.1309C42.5323 43.0952 42.2937 41.6213 39.6788 37.1539L39.644 37.0789C37.8229 34.1096 36.0961 31.5158 36.7409 27.4463C37.4413 23.0236 40.9005 21.0749 44.047 21.1332L45.0635 21.1321V24.4539L44.047 24.4577C42.714 24.4649 40.3943 25.3792 40.0608 27.4796C39.739 29.5146 39.9616 30.8309 42.5092 35.2408L42.5773 35.3536C44.4707 38.401 46.1751 41.0954 45.5304 45.1646C44.8296 49.5884 41.4347 51.5511 38.2874 51.4932H37.2713" fill="black"/>
<path d="M75.6078 23.5938H78.7403V24.1109H77.4674V27.6864H76.8806V24.1109H75.6078V23.5938ZM79.9249 25.3046H81.8807V23.5926H82.4672V27.6864H81.8807V25.8222H79.9249V27.6864H79.3373V23.5926H79.9249V25.3046ZM85.848 24.1109H84.1417V25.3043H85.6966V25.8218H84.1417V27.1677H85.848V27.686H83.5553V23.593H85.848V24.1109ZM90.1701 26.8618H92.9175V27.6864H89.2259V21.1177H90.1701V26.8618ZM93.4881 24.9597C93.4881 26.615 94.4467 27.778 96.1148 27.778C97.7848 27.778 98.7415 26.6146 98.7415 24.9597C98.7415 23.3446 97.7749 22.1419 96.1148 22.1419C94.4539 22.1415 93.4881 23.3446 93.4881 24.9597ZM94.3123 24.9597C94.3123 23.852 94.9067 22.821 96.1144 22.829C97.3214 22.821 97.918 23.852 97.918 24.9597C97.918 26.0448 97.3759 27.0908 96.1144 27.0908C94.8525 27.0908 94.3123 26.0448 94.3123 24.9597ZM103.306 26.6187H103.322V22.2327H104.102V27.6864H103.101L100.619 23.1951H100.604V27.6864H99.8235V22.2327H100.886L103.306 26.6187ZM105.417 27.6868H107.022C108.818 27.6868 109.923 26.741 109.923 24.9124C109.923 23.2326 108.637 22.2331 107.022 22.2331H105.417V27.6868ZM106.195 22.9202H107.108C108.231 22.9202 109.097 23.6706 109.097 24.9446C109.097 26.3511 108.357 27 107.015 27H106.195V22.9202ZM110.796 24.9597C110.796 26.615 111.754 27.778 113.423 27.778C115.091 27.778 116.05 26.6146 116.05 24.9597C116.05 23.3446 115.085 22.1419 113.423 22.1419C111.761 22.1415 110.796 23.3446 110.796 24.9597ZM111.62 24.9597C111.62 23.852 112.216 22.821 113.423 22.829C114.628 22.821 115.225 23.852 115.225 24.9597C115.225 26.0448 114.685 27.0908 113.423 27.0908C112.16 27.0908 111.62 26.0448 111.62 24.9597ZM120.613 26.6187H120.63V22.2327H121.408V27.6864H120.409L117.926 23.1951H117.911V27.6864H117.132V22.2327H118.194L120.613 26.6187ZM128.039 22.1085C127.56 21.9204 127.297 21.8356 126.805 21.8356C126.276 21.8356 125.654 22.0233 125.654 22.7101C125.654 23.9705 128.479 23.6786 128.479 25.8407C128.479 27.2404 127.4 27.7939 126.079 27.7939C125.615 27.7939 125.166 27.6618 124.734 27.5213L124.827 26.649C125.148 26.7808 125.708 26.9682 126.192 26.9682C126.728 26.9682 127.485 26.6676 127.485 25.8968C127.485 24.4305 124.659 24.8344 124.659 22.7945C124.659 21.63 125.577 21.011 126.765 21.011C127.202 21.011 127.719 21.0856 128.168 21.2408L128.039 22.1085ZM133.355 23.133C133.013 22.9318 132.624 22.8267 132.227 22.8286C130.969 22.8286 130.131 23.7346 130.131 24.9594C130.131 26.2398 131.054 27.0905 132.188 27.0905C132.58 27.0905 133.104 26.989 133.378 26.8247L133.426 27.583C133.011 27.7545 132.503 27.778 132.181 27.778C130.453 27.778 129.308 26.6687 129.308 24.9366C129.308 23.2576 130.524 22.1415 132.188 22.1415C132.611 22.1415 133.027 22.2036 133.417 22.3701L133.355 23.133ZM135.161 24.5092H137.774V22.2327H138.553V27.6864H137.774V25.1967H135.161V27.6864H134.384V22.2327H135.161V24.5092ZM139.684 24.9597C139.684 26.615 140.644 27.778 142.311 27.778C143.981 27.778 144.938 26.6146 144.938 24.9597C144.938 23.3446 143.971 22.1419 142.311 22.1419C140.651 22.1415 139.684 23.3446 139.684 24.9597ZM140.51 24.9597C140.51 23.852 141.105 22.821 142.312 22.829C143.519 22.821 144.115 23.852 144.115 24.9597C144.115 26.0448 143.574 27.0908 142.312 27.0908C141.051 27.0908 140.51 26.0448 140.51 24.9597ZM145.746 24.9597C145.746 26.615 146.704 27.778 148.373 27.778C150.042 27.778 151 26.6146 151 24.9597C151 23.3446 150.034 22.1419 148.373 22.1419C146.712 22.1415 145.746 23.3446 145.746 24.9597ZM146.571 24.9597C146.571 23.852 147.167 22.821 148.374 22.829C149.581 22.821 150.177 23.852 150.177 24.9597C150.177 26.0448 149.636 27.0908 148.374 27.0908C147.111 27.0908 146.571 26.0448 146.571 24.9597ZM152.862 26.9992H155.145V27.6864H152.081V22.2327H152.862V26.9992ZM75.6335 51.4883H76.5781V48.8616H77.4996C78.6835 48.8616 79.8174 48.3475 79.8174 46.8872C79.8174 45.3899 78.7024 44.9216 77.358 44.9216H75.6335V51.4883ZM76.5781 45.7442H77.3766C77.96 45.7442 78.8251 46.0467 78.8251 46.8762C78.8251 47.7436 78.0918 48.0359 77.5087 48.0359H76.5781V45.7442ZM80.5163 48.7616C80.5163 50.4157 81.4741 51.5795 83.1434 51.5795C84.8126 51.5795 85.7704 50.4157 85.7704 48.7616C85.7704 47.1447 84.8046 45.9438 83.1434 45.9438C81.4821 45.9438 80.5163 47.1454 80.5163 48.7616ZM81.3409 48.7616C81.3409 47.6531 81.9371 46.6233 83.1437 46.6298C84.3503 46.6222 84.9462 47.6531 84.9462 48.7616C84.9462 49.8456 84.406 50.892 83.1437 50.892C81.8815 50.892 81.3409 49.8467 81.3409 48.7616ZM87.671 50.8011H89.9539V51.4875H86.8914V46.0346H87.671V50.8011ZM90.833 46.0358H91.6129V51.4879H90.833V46.0358ZM92.4098 46.0346H96.5835V46.7225H94.8862V51.4883H94.1071V46.7225H92.4098V46.0346ZM97.388 46.0358H98.1679V51.4879H97.388V46.0358ZM103.334 46.9349C102.992 46.7335 102.603 46.628 102.206 46.6298C100.948 46.6298 100.111 47.5369 100.111 48.7616C100.111 50.0417 101.033 50.892 102.169 50.892C102.56 50.892 103.084 50.7894 103.357 50.6281L103.405 51.3849C102.991 51.5557 102.482 51.5799 102.162 51.5799C100.434 51.5799 99.287 50.4714 99.287 48.7382C99.287 47.0587 100.503 45.9438 102.169 45.9438C102.591 45.9438 103.006 46.0047 103.397 46.1724L103.334 46.9349ZM103.761 51.4883H104.581L105.134 50.1129H107.807L108.362 51.4883H109.215L106.909 46.0354H106.089L103.761 51.4883ZM107.557 49.4715H105.384L106.477 46.7668L107.557 49.4715ZM110.797 50.8011H113.08V51.4875H110.018V46.0346H110.797V50.8011ZM119.268 45.9093C118.79 45.7227 118.528 45.6367 118.036 45.6367C117.506 45.6367 116.881 45.8245 116.881 46.5113C116.881 47.7716 119.708 47.4805 119.708 49.6426C119.708 51.0427 118.63 51.5954 117.307 51.5954C116.844 51.5954 116.395 51.4637 115.965 51.3232L116.057 50.4506C116.375 50.5831 116.938 50.7693 117.421 50.7693C117.96 50.7693 118.715 50.4695 118.715 49.6987C118.715 48.2324 115.889 48.6352 115.889 46.5961C115.889 45.433 116.806 44.8121 117.997 44.8121C118.431 44.8121 118.951 44.8875 119.398 45.0416L119.268 45.9093ZM124.629 46.9349C124.288 46.734 123.899 46.6286 123.503 46.6298C122.244 46.6298 121.408 47.5369 121.408 48.7616C121.408 50.0417 122.33 50.892 123.465 50.892C123.856 50.892 124.38 50.7894 124.653 50.6281L124.7 51.3849C124.285 51.5557 123.777 51.5799 123.457 51.5799C121.729 51.5799 120.584 50.4714 120.584 48.7382C120.584 47.0587 121.799 45.9438 123.465 45.9438C123.887 45.9438 124.302 46.0047 124.692 46.1724L124.629 46.9349ZM125.667 46.0358H126.445V51.4879H125.667V46.0358ZM130.942 46.7225H128.666V48.3104H130.738V48.9983H128.666V50.8011H130.942V51.4875H127.887V46.0346H130.942V46.7225ZM135.688 50.4199H135.704V46.0346H136.483V51.4875H135.484L133.001 46.9966H132.983V51.4875H132.205V46.0346H133.268L135.688 50.4199ZM141.64 46.9349C141.299 46.7341 140.91 46.6287 140.514 46.6298C139.254 46.6298 138.418 47.5369 138.418 48.7616C138.418 50.0417 139.34 50.892 140.474 50.892C140.866 50.892 141.39 50.7894 141.663 50.6281L141.71 51.3849C141.296 51.5557 140.787 51.5799 140.467 51.5799C138.739 51.5799 137.593 50.4714 137.593 48.7382C137.593 47.0587 138.809 45.9438 140.474 45.9438C140.896 45.9438 141.311 46.0047 141.703 46.1724L141.64 46.9349ZM145.763 46.7225H143.486V48.3104H145.56V48.9983H143.486V50.8011H145.763V51.4875H142.708V46.0346H145.763V46.7225ZM75.6203 37.5196C75.6203 38.7584 76.3389 39.6345 77.592 39.6345C78.8433 39.6345 79.5622 38.7588 79.5622 37.5196C79.5622 36.3089 78.8372 35.4048 77.592 35.4048C76.3457 35.4048 75.6203 36.3089 75.6203 37.5196ZM76.2397 37.5196C76.2397 36.6905 76.686 35.9167 77.592 35.9235C78.4969 35.9167 78.9428 36.6901 78.9428 37.5196C78.9428 38.334 78.537 39.1169 77.592 39.1169C76.6455 39.1169 76.2397 38.334 76.2397 37.5196ZM83.0411 35.9912H81.4518V37.1842H82.9707V37.7017H81.4518V39.5659H80.8653V35.4741H83.0411V35.9912ZM91.2294 33.823H88.4914V35.7482H90.9848V36.5728H88.4914V38.7429H91.2294V39.5671H87.5464V32.9985H91.2294V33.823ZM97.1605 35.0137C96.8191 34.8129 96.4299 34.7077 96.0338 34.7093C94.7746 34.7093 93.939 35.6153 93.939 36.8401C93.939 38.1201 94.8613 38.9712 95.9959 38.9712C96.3859 38.9712 96.911 38.8686 97.1839 38.705L97.2305 39.4633C96.8159 39.6345 96.3075 39.6587 95.9868 39.6587C94.2604 39.6587 93.114 38.5502 93.114 36.8177C93.114 35.1383 94.3297 34.0229 95.9959 34.0229C96.418 34.0229 96.8326 34.0846 97.2233 34.252L97.1605 35.0137ZM98.5654 36.8401C98.5654 38.4945 99.5221 39.6576 101.192 39.6576C102.861 39.6576 103.819 38.4945 103.819 36.8401C103.819 35.2242 102.853 34.0222 101.192 34.0222C99.5316 34.0222 98.5654 35.2246 98.5654 36.8401ZM99.3896 36.8401C99.3896 35.7315 99.9852 34.7014 101.193 34.7093C102.4 34.7014 102.994 35.7315 102.994 36.8401C102.994 37.9251 102.453 38.9712 101.193 38.9712C99.9299 38.9712 99.3896 37.9251 99.3896 36.8401ZM109.078 38.4987H109.094V34.1138H109.874V39.5659H108.874L106.392 35.0758H106.377V39.5659H105.596V34.1138H106.658L109.078 38.4987ZM111.641 36.8401C111.641 38.4945 112.597 39.6576 114.268 39.6576C115.938 39.6576 116.894 38.4945 116.894 36.8401C116.894 35.2242 115.928 34.0222 114.268 34.0222C112.607 34.0222 111.641 35.2246 111.641 36.8401ZM112.467 36.8401C112.467 35.7315 113.061 34.7014 114.269 34.7093C115.476 34.7014 116.071 35.7315 116.071 36.8401C116.071 37.9251 115.53 38.9712 114.269 38.9712C113.006 38.9712 112.467 37.9251 112.467 36.8401ZM121.689 38.6497L123.374 34.1138H124.662V39.5659H123.881V34.8468H123.866L122.058 39.5659H121.291L119.484 34.8468H119.467V39.5659H118.687V34.1138H119.976L121.689 38.6497ZM126.745 34.1138H127.525V39.5671H126.745V34.1138ZM133.347 35.0137C133.006 34.8127 132.617 34.7075 132.221 34.7093C130.961 34.7093 130.126 35.6153 130.126 36.8401C130.126 38.1201 131.049 38.9712 132.182 38.9712C132.574 38.9712 133.097 38.8686 133.371 38.705L133.418 39.4633C133.004 39.6345 132.495 39.6587 132.174 39.6587C130.447 39.6587 129.301 38.5502 129.301 36.8177C129.301 35.1383 130.517 34.0229 132.182 34.0229C132.603 34.0229 133.018 34.0846 133.41 34.252L133.347 35.0137ZM137.518 34.9353C137.121 34.7797 136.9 34.7089 136.492 34.7089C136.052 34.7089 135.531 34.8657 135.531 35.4362C135.531 36.4808 137.883 36.2392 137.883 38.0345C137.883 39.1957 136.987 39.6576 135.886 39.6576C135.5 39.6576 135.128 39.5489 134.769 39.43L134.848 38.705C135.111 38.8141 135.579 38.97 135.98 38.97C136.43 38.97 137.059 38.7202 137.059 38.08C137.059 36.862 134.706 37.1971 134.706 35.504C134.706 34.5359 135.471 34.0203 136.461 34.0203C136.824 34.0203 137.255 34.0831 137.627 34.2175L137.518 34.9353ZM141.838 39.5659H142.455L142.871 38.535H144.878L145.293 39.5659H145.932L144.202 35.4722H143.586L141.838 39.5659ZM144.688 38.0542H143.057L143.875 36.023L144.688 38.0542ZM149.628 38.7728H149.641V35.4726H150.227V39.5659H149.477L147.62 36.1991H147.607V39.5659H147.021V35.4726H147.82L149.628 38.7728ZM151.737 39.5659H152.944C154.29 39.5659 155.118 38.8546 155.118 37.4852C155.118 36.226 154.154 35.4737 152.944 35.4737H151.737V39.5659ZM152.324 35.9916H153.009C153.853 35.9916 154.501 36.5527 154.501 37.509C154.501 38.5623 153.946 39.0488 152.939 39.0488H152.324V35.9916Z" fill="white"/>
<path d="M149.651 46.0126H155.119V51.4814H149.651V46.0126Z" fill="white"/>
</svg>
