<svg width="294" height="50" viewBox="0 0 294 50" fill="none" xmlns="http://www.w3.org/2000/svg">
<path d="M6.27704 4.97839H46.1039V45.2381H6.27704V4.97839Z" fill="black"/>
<path d="M62.7706 19.4805H64.9351L70.3463 26.4069V19.2641H72.9437V30.7359H70.7792L64.9351 23.5931V30.7359H62.7706V19.2641M77.2727 19.4805H85.9307V21.645H79.6537V23.8095H85.0649V25.974H79.6537V28.5714H85.9307V30.7359H77.2727V19.2641M88.7446 19.4805H91.5584L93.723 27.0563L96.3204 19.2641H98.4849L101.082 27.0563L103.463 19.2641H106.061L102.165 30.7359H100L97.4026 23.3766L94.8052 30.7359H92.6407L88.7446 19.4805ZM119.048 26.1905L114.719 19.4805H117.749L120.563 24.2424L123.16 19.4805H126.19L121.861 26.4069V30.7359H119.048V26.4069M127.706 25.1082C127.706 21.8615 130.087 19.2641 133.55 19.2641C137.013 19.2641 139.61 21.8615 139.61 25.1082C139.61 28.355 137.013 30.9524 133.55 30.9524C130.087 30.9524 127.706 28.1385 127.706 25.1082ZM137.229 25.1082C137.229 22.9437 135.714 21.4286 133.766 21.4286C131.602 21.4286 130.303 23.1602 130.303 25.1082C130.303 27.0563 131.818 28.5714 133.766 28.5714C135.931 28.5714 137.229 27.0563 137.229 25.1082ZM143.507 19.4805H148.701C150.216 19.4805 151.299 19.697 151.948 20.5628C152.597 21.2121 153.03 22.0779 153.03 23.1602C153.03 24.8918 151.948 26.1905 150.433 26.6234L153.247 30.7359H150.433L147.836 27.0563H145.887V30.7359H143.507V19.2641M148.485 24.8918C149.784 24.8918 150.433 24.2424 150.433 23.3766C150.433 22.0779 149.567 21.645 148.268 21.645H146.104V24.8918H148.485ZM156.926 19.4805H159.307V24.2424L163.853 19.4805H166.883L162.338 24.2424L167.1 30.7359H164.069L160.606 25.974L159.307 27.2727V30.7359H156.926V19.2641M176.623 25.974V19.4805H179.004V25.974C179.004 27.7056 180.087 28.5714 181.602 28.5714C183.117 28.5714 183.983 27.7056 183.983 25.974V19.4805H186.58V25.974C186.58 29.2208 184.416 30.9524 181.602 30.9524C178.571 30.9524 176.623 29.2208 176.623 25.7576M190.476 19.4805H193.074L198.268 26.4069V19.2641H200.866V30.7359H198.701L193.074 23.5931V30.7359H190.693V19.2641M205.195 19.2641H207.792V30.5195H205.195V19.2641ZM211.255 19.4805H214.069L216.883 27.2727L219.913 19.2641H222.511L218.182 30.7359H216.017L211.039 19.4805M225.974 19.4805H234.632V21.645H228.571V23.8095H233.766V25.974H228.571V28.5714H234.632V30.7359H225.974V19.2641M238.528 19.4805H243.723C245.022 19.4805 246.32 19.697 246.97 20.5628C247.619 21.2121 248.052 22.0779 248.052 23.1602C248.052 24.8918 246.97 26.1905 245.455 26.6234L248.268 30.7359H245.455L242.857 27.0563H240.909V30.7359H238.528V19.2641M243.507 24.8918C244.805 24.8918 245.455 24.2424 245.455 23.3766C245.455 22.0779 244.589 21.645 243.29 21.645H241.126V24.8918H243.507ZM251.082 29.0043L252.597 27.2727C253.463 28.1385 254.762 28.5714 255.844 28.5714C256.926 28.5714 257.576 28.355 257.576 27.7056C257.576 26.8398 257.143 26.6234 255.411 26.1905C253.03 25.5411 251.515 24.8918 251.515 22.7273C251.515 20.5628 253.247 19.2641 255.411 19.2641C256.963 19.1646 258.499 19.6255 259.74 20.5628L258.442 22.7273C257.359 21.8615 256.277 21.4286 255.411 21.4286C254.545 21.4286 253.896 21.8615 253.896 22.2944C253.896 23.1602 254.545 23.3766 256.494 24.026C258.658 24.4589 259.957 25.3247 259.957 27.2727C259.957 29.4372 258.225 30.9524 255.844 30.9524C254.113 30.9524 252.381 30.303 251.082 29.0043ZM264.069 19.2641H266.667V30.5195H264.069V19.2641ZM273.593 21.645H270.13V19.4805H279.437V21.645H275.974V30.7359H273.593V21.645ZM286.364 26.1905L282.035 19.2641H284.849L287.446 24.026L290.26 19.2641H293.074L288.745 26.1905V30.5195H286.364V26.1905ZM50 50H0V0H50V50ZM17.316 16.0173C15.1515 18.1818 14.2857 26.1905 23.1602 26.1905C17.9654 23.1602 18.6147 18.6147 20.7792 15.5844C20.7792 15.1515 19.2641 11.4719 19.2641 12.1212C19.2641 13.6364 17.7489 15.5844 17.316 16.0173ZM24.6753 25.974C21.2121 19.4805 28.5714 14.9351 28.5714 14.0693C28.5714 11.9048 27.0563 7.57576 26.8398 8.00866C26.4069 10.1732 23.5931 12.987 22.9437 13.6364C17.7489 19.4805 19.0476 23.8095 24.4589 25.974H24.6753ZM25.5411 25.974C25.974 19.2641 32.4675 18.3983 32.9004 17.316C33.7662 15.1515 32.0346 10.8225 31.8182 11.039C31.1688 12.7706 29.8701 14.2857 29.8701 14.2857C24.4589 18.1818 23.3766 21.645 25.5411 25.7576V25.974ZM26.1905 25.974C36.5801 27.0563 36.1472 15.1515 36.1472 15.1515C35.4978 16.4502 33.9827 17.316 33.9827 17.316C32.684 19.0476 27.4892 19.4805 26.1905 25.974ZM21.4286 29.0043H28.1385V26.8398H21.2121V29.0043H21.4286ZM24.2424 43.5065C24.2424 43.9394 25.1082 44.1558 25.3247 43.5065L27.0563 29.8701H22.7273L24.2424 43.5065Z" fill="white"/>
</svg>
