<svg width="163" height="50" viewBox="0 0 163 50" fill="none" xmlns="http://www.w3.org/2000/svg">
<path d="M63.7839 31.2628C63.7839 27.049 61.7396 24.1091 58.2901 24.1091C54.5398 24.1091 52.7909 27.6399 52.7909 31.2628C52.7909 35.4744 54.8375 38.4119 58.2901 38.4119C62.0388 38.4119 63.7839 34.882 63.7839 31.2628ZM66.3428 31.1791C66.3428 35.8132 62.7633 39.1781 58.2901 39.1781C53.7299 39.1781 50.2351 35.7756 50.2351 31.3451C50.2351 26.7078 53.8145 23.3431 58.2901 23.3431C62.8494 23.3431 66.3428 26.7501 66.3428 31.1791ZM112.959 31.2628C112.959 27.049 110.912 24.1091 107.463 24.1091C103.713 24.1091 101.966 27.6399 101.966 31.2628C101.966 35.4744 104.011 38.4119 107.463 38.4119C111.211 38.4119 112.959 34.882 112.959 31.2628ZM115.516 31.1791C115.516 35.8132 111.935 39.1781 107.463 39.1781C102.902 39.1781 99.4079 35.7756 99.4079 31.3451C99.4079 26.7078 102.988 23.3431 107.463 23.3431C112.021 23.3431 115.516 26.7501 115.516 31.1791ZM125.274 33.8126C124.378 32.5355 124.036 32.0699 122.929 32.0699H121.736V37.2635C121.736 37.6899 121.907 37.8989 122.377 37.9858L124.122 38.3684V38.9247H117.262V38.3684L118.839 37.9858C119.307 37.8605 119.478 37.6899 119.478 37.2635V25.2589C119.478 24.8316 119.307 24.6626 118.839 24.5358L117.262 24.1524V23.5969H123.952C125.36 23.5969 126.339 23.726 127.148 24.0218C128.81 24.6626 129.747 26.2401 129.747 27.7262C129.747 29.6018 128.341 31.1794 125.998 31.7265V31.8117C126.467 32.0284 126.722 32.325 128.384 34.4995L130.471 37.2635C130.77 37.6899 131.154 37.9427 131.623 38.0303L133.157 38.3684V38.9247H129.492C129.066 38.9247 128.853 38.7948 128.47 38.2824L125.274 33.8126ZM121.736 31.3445H123.654C126.552 31.3445 127.192 29.5181 127.192 27.77C127.192 26.4499 126.594 25.2151 125.231 24.6204C124.507 24.3214 123.824 24.3214 122.887 24.3214H121.736V31.3445ZM95.2326 28.8338H95.8725V33.9436H95.2326L94.8488 32.4122C94.7203 31.8559 94.3804 31.6446 93.8689 31.6446H90.161V37.2639C90.161 37.6896 90.3317 37.8993 90.8009 37.9862L92.5476 38.3689V38.9252H85.6878V38.3689L87.2645 37.9862C87.7329 37.8609 87.9044 37.6896 87.9044 37.2639V25.2586C87.9044 24.8321 87.7329 24.663 87.2645 24.5363L85.6878 24.1521V23.5973H97.2777V27.4323H96.6385L95.9148 25.1302C95.744 24.5363 95.4879 24.3219 94.9765 24.3219H90.161V30.9193H93.8689C94.3804 30.9193 94.678 30.7095 94.8488 30.1532L95.2326 28.8338ZM138.866 24.3216V37.5164C138.866 38.0727 138.993 38.2026 139.549 38.2026H141.422C143.213 38.2026 144.533 37.9429 145.471 37.2636C147.048 36.1156 147.772 34.0295 147.772 31.3885C147.772 28.7921 147.048 26.2403 144.918 25.0047C144.023 24.4922 142.872 24.3216 141.081 24.3216H138.866ZM134.391 38.9249V38.3685L135.968 37.9859C136.438 37.8606 136.608 37.6893 136.608 37.2636V25.2583C136.608 24.8318 136.438 24.6627 135.968 24.536L134.391 24.1526V23.597H141.594C143.553 23.597 144.959 23.8529 146.111 24.3639C149.008 25.6839 150.329 28.5355 150.329 31.3447C150.329 34.0732 149.306 36.6243 146.708 37.9859C145.515 38.6283 143.852 38.9249 141.68 38.9249H134.391ZM72.3515 38.3686V38.9249H66.9399V38.3686L68.3013 38.0298C68.815 37.8992 69.1542 37.7332 69.4949 37.3505L74.1827 31.4754L69.4949 25.2583C69.1973 24.8319 68.815 24.6206 68.3443 24.4923L67.0661 24.1526V23.5971H73.7989V24.1526L72.3515 24.4492C71.8392 24.536 71.9669 24.7474 72.2214 25.0893L75.6733 30.027H75.7587L79.2958 25.0893C79.552 24.7474 79.6381 24.6206 79.1681 24.4923L77.8045 24.1526V23.5971H83.2161V24.1526L81.8524 24.4923C81.3425 24.6206 81.001 24.7889 80.6587 25.1723L76.2278 30.7523L81.1702 37.2637C81.4701 37.6894 81.8524 37.8992 82.3208 38.0298L83.6006 38.3686V38.9249H76.8677V38.3686L78.316 38.0728C78.8282 37.986 78.742 37.82 78.4867 37.4727L74.7365 32.1946H74.6519L70.8594 37.4366C70.6032 37.7762 70.5179 37.8992 70.987 38.0298L72.3515 38.3686ZM56.2096 16.3845C55.7859 16.8079 55.1506 17.0899 54.263 17.0899C53.49 17.0899 52.774 16.8471 52.2887 16.3622C51.6265 15.7014 51.6572 14.8577 51.6572 13.9564V9.69336H52.5271V14.273C52.5271 14.8523 52.5094 15.4171 52.9578 15.8643C53.2685 16.1747 53.7462 16.3422 54.2969 16.3422C54.8345 16.3422 55.2667 16.1571 55.5352 15.8873C56.0335 15.3902 56.002 14.8469 56.002 13.5353V9.69336H56.8596V13.3094C56.8596 14.684 56.915 15.6799 56.2096 16.3845ZM63.9319 16.9536L60.4308 11.0025L60.4532 16.9536H59.6533V9.69312H60.5447L64.0588 15.6773L64.0365 9.69312H64.8371V16.9536H63.9319ZM67.8669 9.6933H68.7414V16.9531H67.8669V9.6933ZM74.1777 16.9529H73.1763L70.6713 9.69318H71.5827L73.7016 16.1024L75.8844 9.69318H76.7304L74.1777 16.9529ZM78.7085 16.9529V9.69318H82.6595V10.417H79.5653V12.8128H82.4703V13.519H79.5653V16.2076H82.7455V16.9529H78.7085ZM89.0641 16.9529L88.2296 15.0712C87.7128 13.914 87.4767 13.7949 86.423 13.7949H85.9169V16.9529H85.0593V9.69318H86.6276C87.5966 9.69318 88.3281 9.68703 88.8995 10.258C89.2633 10.6214 89.4664 11.1039 89.4664 11.7094C89.4664 12.2143 89.3195 12.6338 89.0157 12.9573C88.7542 13.2355 88.3212 13.4798 87.8505 13.5298C88.1058 13.5444 88.3173 13.6827 88.4542 13.8202C88.6526 14.0169 88.7965 14.3166 89.0095 14.7915L89.9748 16.9529H89.0641ZM88.2704 10.7858C87.8543 10.3694 87.3136 10.3886 86.7214 10.3886H85.9169V13.1002H86.2053C86.939 13.1002 87.7289 13.1379 88.2273 12.64C88.468 12.3995 88.6027 12.0622 88.6027 11.6941C88.6027 11.2853 88.4419 10.9572 88.2704 10.7858ZM98.4625 9.6933H99.3371V16.9531H98.4625V9.6933ZM104.326 10.4171V16.953H103.453V10.4171H101.292V9.69324H106.479V10.4171H104.326ZM110.662 14.0837V16.9529H109.799V14.0837L107.492 9.69312H108.492L110.282 13.0978L112.022 9.69312H112.969L110.662 14.0837ZM121.123 17.0902C119.243 17.0902 117.867 15.5381 117.867 13.3558C117.867 11.1137 119.228 9.5561 121.191 9.5561C123.092 9.5561 124.436 11.0975 124.436 13.2889C124.436 15.5365 123.09 17.0902 121.123 17.0902ZM121.12 10.2976C119.696 10.2976 118.772 11.4994 118.772 13.3097C118.772 15.1139 119.802 16.3418 121.167 16.3418C122.686 16.3418 123.531 15.0509 123.531 13.2529C123.531 11.4809 122.533 10.2976 121.12 10.2976ZM127.693 10.4171V12.8129H130.502V13.5191H127.693V16.953H126.825V9.69324H130.684V10.4171H127.693ZM91.7358 11.4644C91.7358 10.3487 92.6341 9.55493 93.9469 9.55493C95.276 9.55493 95.9136 10.2403 95.9782 10.311L95.5521 10.8266C95.3891 10.7014 94.8076 10.2741 94.0039 10.2741C93.0771 10.2741 92.5641 10.7582 92.5641 11.4152C92.5641 11.7334 92.6941 11.9623 92.904 12.1506C93.1532 12.3734 93.517 12.5386 93.9085 12.7192C94.3961 12.9428 95.0637 13.194 95.5113 13.6581C95.8205 13.9786 96.0543 14.3958 96.0543 14.9683C96.0543 16.1754 95.216 17.0952 93.7078 17.0952C92.4218 17.0952 91.6112 16.3875 91.535 16.3168L91.9349 15.7282C92.1411 15.8811 92.9486 16.3583 93.6862 16.3583C94.7799 16.3583 95.1891 15.7597 95.1891 15.039C95.1891 14.7032 95.0368 14.4335 94.8099 14.2168C94.4707 13.891 93.9577 13.672 93.4663 13.4476C92.9779 13.2248 92.5079 12.9912 92.1749 12.6416C91.9549 12.4118 91.7358 12.0353 91.7358 11.4644ZM24.9491 19.5369C24.9491 18.8953 24.7315 18.3766 24.2608 18.1008C23.9662 17.9279 23.567 17.871 23.0748 17.871H19.4922V25.0963H23.3909C24.29 25.0963 24.8184 25.2983 24.8638 26.1036H24.9491V19.5369ZM25.4494 19.5369C25.4494 18.8953 25.6671 18.3766 26.1378 18.1008C26.4332 17.9279 26.8323 17.871 27.3253 17.871H30.9317V25.0963H27.0085C26.1101 25.0963 25.5817 25.2983 25.5356 26.1036H25.4494V19.5369Z" fill="white"/>
<path d="M31.6861 18.4051V26.0435H26.1423L26.0792 26.1996C25.9831 26.4378 25.81 26.6583 25.2055 26.6583C24.601 26.6583 24.4287 26.4378 24.3318 26.1996L24.2687 26.0435H18.7395V18.4051H18.2396V18.6379L17.7597 18.4904C17.7043 18.3022 17.532 18.163 17.3251 18.163C17.0743 18.163 16.8698 18.3674 16.8698 18.6179C16.8698 18.87 17.0743 19.0736 17.3251 19.0736C17.4351 19.0736 17.5343 19.0329 17.6127 18.9683L18.2396 19.1604V19.7744L17.7689 19.6899C17.7338 19.6079 17.6753 19.538 17.6008 19.489C17.5263 19.4399 17.4389 19.4138 17.3497 19.414C17.0989 19.414 16.8944 19.6176 16.8944 19.8689C16.8944 20.1202 17.0989 20.3238 17.3497 20.3238C17.4797 20.3238 17.5966 20.2684 17.6797 20.1816L18.2396 20.2823V20.9077L17.7473 20.8862C17.6681 20.7541 17.5243 20.6642 17.3582 20.6642C17.1074 20.6642 16.9029 20.8678 16.9029 21.1191C16.9029 21.3703 17.1074 21.5747 17.3582 21.5747C17.5105 21.5747 17.6435 21.4994 17.7266 21.3857L18.2396 21.408V22.088L17.7366 22.1064C17.6948 22.0472 17.6394 21.9989 17.575 21.9656C17.5106 21.9323 17.4391 21.915 17.3666 21.9151C17.1159 21.9151 16.9113 22.1187 16.9113 22.37C16.9113 22.6212 17.1159 22.8249 17.3666 22.8249C17.5312 22.8249 17.6743 22.7365 17.7542 22.6059L18.2396 22.5882V23.2152L17.6896 23.3097C17.6472 23.2643 17.5959 23.228 17.5389 23.2031C17.4819 23.1783 17.4204 23.1654 17.3582 23.1653C17.1074 23.1653 16.9029 23.3689 16.9029 23.6202C16.9029 23.8715 17.1074 24.075 17.3582 24.075C17.4469 24.0751 17.5337 24.0493 17.6079 24.0007C17.6821 23.9521 17.7405 23.8828 17.7758 23.8015L18.2396 23.7224V24.3378L17.6381 24.5207C17.5597 24.4562 17.4597 24.4155 17.3497 24.4155C17.2289 24.4155 17.1131 24.4634 17.0277 24.5487C16.9423 24.634 16.8944 24.7497 16.8944 24.8704C16.8944 24.991 16.9423 25.1067 17.0277 25.192C17.1131 25.2773 17.2289 25.3252 17.3497 25.3252C17.5566 25.3252 17.7296 25.1869 17.785 24.9987L18.2396 24.8596V25.4551L17.5751 25.7417C17.501 25.6925 17.414 25.6662 17.3251 25.6664C17.0743 25.6664 16.8698 25.87 16.8698 26.1213C16.8698 26.3725 17.0743 26.5762 17.3251 26.5762C17.5489 26.5762 17.735 26.414 17.7727 26.2004L18.2396 25.9991V26.5431H23.9603C24.1933 26.9481 24.5956 27.1578 25.2055 27.1578C25.8154 27.1578 26.2184 26.9481 26.4499 26.5431H32.186V18.4051L31.6861 18.4051ZM21.4415 15.8577C20.2848 15.8577 19.348 16.0376 19.348 16.2588C19.348 16.4809 20.2848 16.6599 21.4415 16.6599C22.5975 16.6599 23.5351 16.4809 23.5351 16.2588C23.5351 16.0376 22.5975 15.8577 21.4415 15.8577ZM24.3239 13.3519L23.1157 14.2002L23.1057 14.2863L23.3926 14.4154C23.4495 14.4438 23.4495 14.4892 23.421 14.5168L22.6619 15.1569L22.5896 15.1508L22.052 14.3593C22.0143 14.3078 22.0281 14.2564 22.0935 14.2456L22.4542 14.1864V14.0957L21.5182 12.7749H21.3644L20.4284 14.0957V14.1864L20.7899 14.2456C20.8545 14.2564 20.8675 14.3078 20.8306 14.3593L20.2922 15.1508L20.2215 15.1569L19.5116 14.5168C19.4831 14.4892 19.4831 14.4438 19.54 14.4154L19.8277 14.2863L19.8169 14.2002L18.5579 13.3519L18.4564 13.3919L19.1947 15.6479C19.5708 15.4796 20.4322 15.3613 21.4405 15.3567C22.4504 15.3613 23.3118 15.4796 23.6871 15.6479L24.4263 13.3919L24.3239 13.3519ZM25.1964 30.9876C24.0396 30.9876 23.1028 31.1674 23.1028 31.3887C23.1028 31.6107 24.0396 31.7898 25.1964 31.7898C26.3523 31.7898 27.2899 31.6107 27.2899 31.3887C27.2899 31.1674 26.3523 30.9876 25.1964 30.9876ZM28.0789 28.4816L26.8706 29.3307L26.8606 29.4168L27.1475 29.5451C27.2044 29.5735 27.2044 29.6188 27.1759 29.6465L26.4168 30.2873L26.3445 30.2804L25.8069 29.489C25.77 29.4375 25.7831 29.386 25.8484 29.3753L26.2092 29.3169V29.2254L25.2731 27.9046H25.1193L24.1833 29.2254V29.3169L24.5448 29.3753C24.6094 29.386 24.6224 29.4375 24.5855 29.489L24.0471 30.2804L23.9756 30.2873L23.2672 29.6465C23.238 29.6188 23.238 29.5735 23.2949 29.5451L23.5826 29.4168L23.5718 29.3307L22.3128 28.4816L22.2105 28.5216L22.9504 30.7784C23.3257 30.6093 24.1871 30.491 25.1962 30.4864C26.2053 30.491 27.0675 30.6093 27.442 30.7784L28.1812 28.5216L28.0789 28.4816ZM28.943 15.8577C27.7854 15.8577 26.8486 16.0376 26.8486 16.2588C26.8486 16.4809 27.7854 16.6599 28.943 16.6599C30.0982 16.6599 31.0357 16.4809 31.0357 16.2588C31.0357 16.0376 30.0982 15.8577 28.943 15.8577ZM31.8248 13.3519L30.6165 14.2002L30.6058 14.2863L30.8934 14.4154C30.9495 14.4438 30.9503 14.4892 30.9211 14.5168L30.1619 15.1569L30.0904 15.1508L29.5528 14.3593C29.5151 14.3078 29.529 14.2564 29.5936 14.2456L29.9543 14.1864V14.0957L29.0183 12.775H28.8653L27.9293 14.0958V14.1865L28.29 14.2457C28.3554 14.2564 28.3684 14.3079 28.3315 14.3594L27.7939 15.1508L27.7216 15.157L27.0125 14.5085C26.984 14.4815 26.984 14.4354 27.0409 14.407L27.3286 14.2864L27.3178 14.2003L26.0588 13.352L25.9564 13.392L26.6956 15.6479C27.0709 15.4797 27.9324 15.3614 28.9422 15.3568C29.9513 15.3614 30.8127 15.4797 31.1873 15.6479L31.9272 13.392L31.8248 13.3519Z" fill="white"/>
<path d="M20.3394 19.7993C20.3394 19.9407 20.3748 19.9683 20.451 19.9683C20.5886 19.9683 20.727 19.8169 20.727 19.535C20.727 19.1923 20.5532 19.097 20.4178 19.097C20.3809 19.097 20.3602 19.1016 20.3494 19.1085C20.3409 19.1108 20.3394 19.1477 20.3394 19.1877V19.7993ZM20.4178 19.0171C20.614 19.0171 20.7771 19.0555 20.8832 19.1592C20.9578 19.2307 21.0201 19.3482 21.0201 19.4858C21.0201 19.8823 20.7193 20.0529 20.3502 20.0529H19.9395V19.9905C20.0556 19.9806 20.0687 19.9698 20.0687 19.7977V19.2721C20.0687 19.1 20.0556 19.0884 19.9518 19.0792V19.017L20.4178 19.0171ZM21.4554 19.495C21.4554 19.7839 21.5638 19.9936 21.7199 19.9936C21.8576 19.9936 21.9322 19.8614 21.9322 19.5733C21.9322 19.2529 21.8176 19.0762 21.6799 19.0762C21.5576 19.0762 21.4554 19.2168 21.4554 19.495ZM22.2291 19.5218C22.2291 19.863 21.996 20.0766 21.6899 20.0766C21.3684 20.0766 21.1592 19.8423 21.1592 19.5495C21.1592 19.2913 21.3315 18.9932 21.7122 18.9932C22.0037 18.9932 22.2291 19.2068 22.2291 19.5218ZM23.6368 19.0171V19.0793C23.5153 19.0908 23.5091 19.097 23.5137 19.2645L23.5299 19.7978C23.5345 19.9745 23.5383 19.9791 23.653 19.9906V20.0529H23.1538V19.9905C23.273 19.979 23.2776 19.9744 23.2761 19.7977L23.2722 19.2368H23.2653L22.9577 20.0351H22.8715L22.5793 19.2928H22.5762L22.5654 19.6463C22.5608 19.7831 22.5623 19.8599 22.5685 19.9091C22.5746 19.9683 22.61 19.9829 22.7131 19.9905V20.0528H22.32V19.9905C22.3962 19.9837 22.4262 19.9683 22.4362 19.9091C22.4446 19.8599 22.4539 19.7754 22.4616 19.6302L22.4785 19.309C22.4908 19.1084 22.4777 19.0908 22.3516 19.0792V19.017H22.7261L23.0054 19.6478L23.2491 19.017L23.6368 19.0171ZM24.1547 19.7978C24.1547 19.9699 24.167 19.9806 24.277 19.9906V20.0529H23.7609V19.9905C23.8709 19.9806 23.884 19.9698 23.884 19.7977V19.2721C23.884 19.1 23.8709 19.0884 23.7609 19.0792V19.017H24.277V19.0792C24.167 19.0884 24.1547 19.1 24.1547 19.2721V19.7978ZM21.5871 21.9751H21.4502L20.8602 21.2228H20.8564V21.5163C20.8564 21.6831 20.8633 21.7707 20.8695 21.8206C20.8772 21.8767 20.9202 21.8967 21.0256 21.902V21.9635H20.6288V21.902C20.6987 21.8982 20.7403 21.8767 20.7488 21.8206C20.7549 21.7707 20.7611 21.6831 20.7611 21.5163V21.2228C20.7611 21.1053 20.758 21.0845 20.7257 21.0399C20.7026 21.0061 20.6626 20.9953 20.6049 20.9907V20.9285H20.9572L21.4878 21.5893H21.4917V21.3765C21.4917 21.209 21.4848 21.1214 21.4786 21.0722C21.4709 21.0161 21.4271 20.9953 21.3225 20.9907V20.9285H21.7286V20.9907C21.6494 20.9938 21.6078 21.0161 21.5994 21.0722C21.5932 21.1214 21.5871 21.209 21.5871 21.3765V21.9751ZM22.2329 21.9751C22.1267 21.6986 22.0208 21.422 21.9153 21.1452C21.863 21.0084 21.8314 21 21.7545 20.9907V20.9285H22.2691V20.9907L22.2153 20.9969C22.156 21.003 22.156 21.0177 22.1737 21.0737C22.2021 21.1629 22.3283 21.4764 22.3875 21.6324C22.4368 21.4971 22.539 21.1929 22.5644 21.1183C22.5975 21.0207 22.5882 21.003 22.5167 20.9953L22.4683 20.9907V20.9285H22.8552V20.9907C22.7636 21.0015 22.7413 21.01 22.679 21.1552C22.669 21.1767 22.4744 21.65 22.3552 21.9751H22.2329ZM22.9519 21.6358C22.985 21.728 23.0788 21.9047 23.2357 21.9047C23.3188 21.9047 23.3826 21.8509 23.3826 21.7471C23.3826 21.6534 23.3203 21.6004 23.2226 21.5558L23.1988 21.5451C23.0688 21.4843 22.9204 21.4014 22.9204 21.2316C22.9204 21.051 23.0503 20.9042 23.3011 20.9042C23.3507 20.9044 23.4 20.9109 23.448 20.9234C23.4841 20.9334 23.5095 20.9396 23.5303 20.9465C23.5364 21.0079 23.548 21.0863 23.5656 21.1947L23.4957 21.2055C23.4603 21.1002 23.4049 20.9872 23.2788 20.9872C23.1973 20.9872 23.1395 21.0494 23.1395 21.1263C23.1395 21.2055 23.2026 21.2516 23.3041 21.2984L23.3387 21.3138C23.4864 21.3806 23.6118 21.4621 23.6118 21.6488C23.6118 21.844 23.4542 21.9877 23.2072 21.9877C23.1426 21.9877 23.0773 21.9754 23.035 21.9608C22.9873 21.9446 22.9534 21.9324 22.935 21.9223C22.9219 21.8494 22.9011 21.7633 22.8819 21.6565L22.9519 21.6358ZM20.8781 23.6202C20.8781 23.7924 20.8904 23.8031 21.0011 23.8131V23.8753H20.4843V23.8131C20.5943 23.8031 20.6074 23.7924 20.6074 23.6202V23.0947C20.6074 22.9225 20.5943 22.911 20.4843 22.9018V22.8395H21.0011V22.9018C20.8904 22.911 20.8781 22.9225 20.8781 23.0947V23.6202ZM21.5091 23.6408C21.5091 23.7238 21.5122 23.763 21.5406 23.7776C21.5668 23.7907 21.6029 23.7922 21.6521 23.7922C21.7037 23.7922 21.7729 23.7876 21.806 23.7461C21.8314 23.7161 21.8583 23.6731 21.8837 23.5886L21.9529 23.5993C21.9429 23.6601 21.9098 23.826 21.8952 23.8752H21.1045V23.8129C21.2253 23.803 21.2383 23.7922 21.2383 23.6201V23.0945C21.2383 22.9224 21.2253 22.9117 21.1184 22.9016V22.8394H21.6368V22.9016C21.5222 22.9117 21.5091 22.9224 21.5091 23.0945V23.6408ZM22.3991 23.6408C22.3991 23.7238 22.4022 23.763 22.4307 23.7776C22.456 23.7907 22.4922 23.7922 22.5422 23.7922C22.5937 23.7922 22.6621 23.7876 22.6952 23.7461C22.7206 23.7161 22.7483 23.6731 22.7729 23.5886L22.8421 23.5993C22.8329 23.6601 22.799 23.826 22.7845 23.8752H21.9938V23.8129C22.1153 23.803 22.1276 23.7922 22.1276 23.6201V23.0945C22.1276 22.9224 22.1153 22.9117 22.0084 22.9016V22.8394H22.526V22.9016C22.4114 22.9117 22.3991 22.9224 22.3991 23.0945V23.6408ZM23.1608 23.8862C23.0548 23.6097 22.9492 23.3331 22.844 23.0564C22.7909 22.9196 22.7586 22.9111 22.6824 22.9019V22.8397H23.1978V22.9019L23.1432 22.908C23.0839 22.9142 23.0839 22.9288 23.1024 22.9849C23.1309 23.074 23.257 23.3875 23.3155 23.5435C23.3647 23.4083 23.467 23.104 23.4924 23.0294C23.5262 22.9319 23.517 22.9142 23.4447 22.9065L23.397 22.9019V22.8397H23.7823V22.9019C23.6915 22.9126 23.6693 22.9211 23.6069 23.0663C23.597 23.0878 23.4031 23.5612 23.2839 23.8862H23.1608ZM27.443 19.0171V19.0793C27.3215 19.0908 27.3153 19.097 27.3199 19.2645L27.3361 19.7978C27.3407 19.9745 27.3445 19.9791 27.4592 19.9906V20.0529H26.96V19.9905C27.0792 19.979 27.0838 19.9744 27.0823 19.7977L27.0777 19.2368H27.0715L26.7631 20.0351H26.6778L26.3862 19.2928H26.3831L26.3716 19.6463C26.367 19.7831 26.3686 19.8599 26.3747 19.9091C26.3809 19.9683 26.4155 19.9829 26.5193 19.9905V20.0528H26.1263V19.9905C26.2024 19.9837 26.2324 19.9683 26.2424 19.9091C26.2509 19.8599 26.2601 19.7754 26.2678 19.6302L26.2847 19.309C26.297 19.1084 26.284 19.0908 26.1578 19.0792V19.017H26.5324L26.8116 19.6478L27.0554 19.017L27.443 19.0171ZM27.9606 19.7978C27.9606 19.9699 27.9737 19.9806 28.0837 19.9906V20.0529H27.5669V19.9905C27.6768 19.9806 27.6899 19.9698 27.6899 19.7977V19.2721C27.6899 19.1 27.6768 19.0884 27.5669 19.0792V19.017H28.0837V19.0792C27.9737 19.0884 27.9606 19.1 27.9606 19.2721V19.7978ZM29.1468 20.0637H29.0099L28.42 19.3114H28.4169V19.6049C28.4169 19.7717 28.4231 19.86 28.43 19.9092C28.4377 19.9653 28.4808 19.9853 28.5862 19.9907V20.0521H28.1885V19.9907C28.2585 19.9868 28.3008 19.9653 28.3085 19.9092C28.3146 19.86 28.3216 19.7717 28.3216 19.6049V19.3114C28.3216 19.1939 28.3185 19.1731 28.2862 19.1285C28.2623 19.0955 28.2223 19.084 28.1654 19.0793V19.0171H28.5169L29.0484 19.678H29.0507V19.4651C29.0507 19.2976 29.0453 19.21 29.0391 19.1608C29.0299 19.1047 28.9876 19.084 28.8822 19.0793V19.0171H29.2891V19.0793C29.2091 19.0824 29.1676 19.1047 29.1599 19.1608C29.1538 19.21 29.1468 19.2976 29.1468 19.4651V20.0637ZM29.6113 19.6448H29.8151L29.7144 19.3405H29.7097L29.6113 19.6448ZM29.8128 19.9905L29.8613 19.9837C29.9205 19.976 29.9236 19.9598 29.9028 19.9029L29.8451 19.74H29.5836L29.5359 19.893C29.5152 19.9621 29.5152 19.9775 29.5882 19.9859L29.6344 19.9905V20.0528H29.2629V19.9905C29.3452 19.979 29.3691 19.9729 29.4214 19.8392L29.7405 19.0155L29.8497 18.9932L29.9589 19.2944C30.0266 19.4842 30.0951 19.6717 30.1558 19.8346C30.2074 19.9729 30.2358 19.9806 30.3143 19.9905V20.0528H29.8128V19.9905ZM27.4306 21.7089C27.4306 21.881 27.4429 21.8918 27.5768 21.9017V21.964H27.0191V21.9017C27.1461 21.8918 27.1591 21.881 27.1591 21.7089V21.0112H27.1322C27.0253 21.0112 26.9822 21.0304 26.9569 21.0596C26.9384 21.0826 26.9184 21.1241 26.8984 21.2141H26.8307C26.8369 21.0796 26.8468 20.9697 26.8499 20.889H26.8991C26.923 20.9251 26.9399 20.9282 26.9822 20.9282H27.6183C27.6606 20.9282 27.6675 20.919 27.6929 20.889H27.7429C27.7444 20.9559 27.7521 21.0911 27.7606 21.2086L27.6898 21.2141C27.6667 21.118 27.6491 21.0765 27.6252 21.0496C27.5975 21.0204 27.5445 21.0112 27.4683 21.0112H27.4306V21.7089ZM28.2651 21.7089C28.2651 21.881 28.2782 21.8918 28.3874 21.9017V21.964H27.8713V21.9017C27.9813 21.8918 27.9944 21.881 27.9944 21.7089V21.1833C27.9944 21.0112 27.9813 21.0004 27.8713 20.9904V20.9282H28.3874V20.9904C28.2782 21.0004 28.2651 21.0112 28.2651 21.1833V21.7089ZM28.8172 21.4061C28.8172 21.695 28.9257 21.9048 29.0818 21.9048C29.2195 21.9048 29.2941 21.7726 29.2941 21.4845C29.2941 21.164 29.1795 20.9873 29.0418 20.9873C28.9195 20.9873 28.8172 21.1279 28.8172 21.4061ZM29.5909 21.4338C29.5909 21.7741 29.3579 21.9877 29.0518 21.9877C28.7303 21.9877 28.5211 21.7534 28.5211 21.4606C28.5211 21.2024 28.6926 20.9043 29.0741 20.9043C29.3656 20.9043 29.5909 21.118 29.5909 21.4338ZM27.901 22.8397V22.9019C27.7794 22.9127 27.7733 22.9196 27.7779 23.0864L27.794 23.6204C27.7986 23.7971 27.8017 23.8018 27.9163 23.8133V23.8747H27.418V23.8133C27.5371 23.8018 27.5425 23.7971 27.5402 23.6204L27.5356 23.0595H27.5294L27.2218 23.8578H27.1357L26.8442 23.1156H26.8403L26.8295 23.469C26.8242 23.6058 26.8265 23.6819 26.8326 23.7318C26.8388 23.7902 26.8734 23.8048 26.978 23.8133V23.8747H26.5834V23.8133C26.6603 23.8064 26.6911 23.7902 26.7003 23.7318C26.7088 23.6819 26.7181 23.5981 26.7257 23.4529L26.7427 23.1309C26.7542 22.9304 26.7427 22.9127 26.6157 22.9019V22.8397H26.9903L27.2695 23.4705L27.5133 22.8397H27.901ZM28.1475 23.0945C28.1475 22.9224 28.1345 22.9117 28.0283 22.9017V22.8394H28.7836C28.7859 22.8671 28.7936 22.9831 28.8013 23.1022L28.7313 23.1076C28.7151 23.0292 28.6975 22.9847 28.672 22.9593C28.6467 22.9324 28.5936 22.9224 28.5098 22.9224H28.4821C28.4221 22.9224 28.4182 22.9224 28.4182 22.9785V23.2859H28.4982C28.6351 23.2859 28.6405 23.2759 28.6567 23.1553H28.7259V23.531H28.6567C28.6405 23.3911 28.6351 23.3812 28.4982 23.3812H28.4182V23.6409C28.4182 23.7239 28.4221 23.763 28.4505 23.7777C28.476 23.7907 28.5129 23.7922 28.5621 23.7922C28.6259 23.7922 28.6967 23.783 28.7313 23.7446C28.7582 23.7162 28.7859 23.657 28.8098 23.5802L28.879 23.5917C28.872 23.6693 28.8382 23.8322 28.8236 23.8752H28.0121V23.8129C28.1345 23.803 28.1475 23.7922 28.1475 23.6201V23.0945ZM29.2365 23.4673H29.4411L29.3404 23.163H29.335L29.2365 23.4673ZM29.4396 23.8131L29.4873 23.8061C29.5457 23.7984 29.5496 23.7823 29.5288 23.7255L29.4703 23.5626H29.2096L29.1611 23.7155C29.1404 23.7846 29.1404 23.8 29.2142 23.8085L29.2596 23.8131V23.8753H28.8897V23.8131C28.9697 23.8023 28.995 23.7954 29.0466 23.6617L29.3657 22.8379L29.4765 22.8157L29.5834 23.1169C29.6526 23.3067 29.7211 23.4942 29.7819 23.6571C29.8334 23.7954 29.8618 23.803 29.9395 23.8131V23.8753H29.4396V23.8131Z" fill="#002147"/>
<path d="M23.7588 36.689C23.7588 36.7437 23.7481 36.7978 23.7271 36.8484C23.7062 36.8989 23.6755 36.9448 23.6368 36.9835C23.5981 37.0222 23.5521 37.0529 23.5015 37.0738C23.4509 37.0947 23.3967 37.1055 23.3419 37.1055C23.2871 37.1056 23.2328 37.0949 23.1822 37.074C23.1315 37.0531 23.0855 37.0224 23.0467 36.9838C23.0079 36.9451 22.9771 36.8991 22.9561 36.8485C22.9351 36.798 22.9243 36.7437 22.9243 36.689C22.9243 36.4592 23.1112 36.2725 23.3419 36.2725C23.4525 36.2726 23.5585 36.3165 23.6366 36.3946C23.7148 36.4727 23.7587 36.5786 23.7588 36.689ZM27.9871 37.3818C27.9872 37.4365 27.9764 37.4907 27.9554 37.5412C27.9345 37.5918 27.9038 37.6377 27.8651 37.6764C27.8264 37.715 27.7804 37.7457 27.7298 37.7666C27.6792 37.7876 27.625 37.7983 27.5703 37.7983C27.5155 37.7984 27.4612 37.7877 27.4105 37.7668C27.3598 37.7459 27.3138 37.7153 27.275 37.6766C27.2362 37.6379 27.2055 37.5919 27.1845 37.5414C27.1635 37.4908 27.1527 37.4366 27.1527 37.3818C27.1527 37.152 27.3395 36.9661 27.5703 36.9661C27.8003 36.9661 27.9871 37.152 27.9871 37.3818ZM25.5974 7.2786C25.5974 7.50832 25.4105 7.69507 25.1798 7.69507C24.9498 7.69507 24.7637 7.50832 24.7637 7.2786C24.7637 7.04882 24.9498 6.86213 25.1798 6.86213C25.4105 6.86213 25.5974 7.04882 25.5974 7.2786ZM35.5196 11.1777C35.5096 11.4074 35.315 11.5857 35.0851 11.5765C34.8551 11.5665 34.6766 11.3721 34.6859 11.1423C34.6907 11.032 34.7392 10.928 34.8207 10.8534C34.9021 10.7788 35.01 10.7395 35.1204 10.7443C35.3496 10.7543 35.5288 10.9479 35.5196 11.1777ZM14.6084 29.0579C14.7684 29.2885 14.8499 29.5351 14.8492 29.7902C14.8484 30.0814 14.7515 30.3173 14.23 30.6777L12.7249 31.7496L12.4472 31.3516C12.4472 31.3516 13.9893 30.2543 14.0147 30.2367C14.2808 30.053 14.3939 29.9185 14.3946 29.7087C14.3946 29.575 14.3454 29.4298 14.2493 29.2907C14.0985 29.074 13.9047 29.0042 13.7347 29.0042C13.5793 29.0042 13.4132 29.1125 13.1163 29.3192L11.7004 30.2789L11.4289 29.8878L12.7756 28.9757C13.151 28.7129 13.4494 28.5324 13.727 28.5331C14.1316 28.5339 14.4269 28.7967 14.6084 29.0579ZM9.79748 26.1214L12.6617 25.1179L12.8201 25.5512L11.1812 27.5513L13.2524 26.733L13.407 27.1556L10.5751 28.2422L10.4167 27.8088L12.0641 25.8056L9.95131 26.544L9.79748 26.1214ZM9.36887 23.8429L12.3669 23.3988L12.4385 23.8782L9.44043 24.3224L9.36887 23.8429ZM9.28002 20.2315L9.29159 19.7289L12.2842 20.9438L12.2627 21.4425L9.19006 22.3576L9.19314 21.8543L11.6851 21.1566L9.28002 20.2315ZM11.4769 14.3745C11.6546 14.0518 11.7815 13.9296 11.9692 13.9303C12.0392 13.9303 12.1269 13.9473 12.2146 13.9957C12.3284 14.0594 12.4153 14.1639 12.4476 14.2761C12.4602 14.3185 12.4662 14.3626 12.4653 14.4068C12.4637 14.5866 12.3638 14.7679 12.2584 14.9569L12.1961 15.0691L11.3424 14.6104L11.4769 14.3745ZM12.0161 13.457C11.5877 13.4578 11.3893 13.7029 11.1162 14.1962L10.7601 14.8332L13.4305 16.2809L13.6605 15.8644L12.5514 15.2589L12.616 15.1398C12.8029 14.8017 12.8675 14.751 13.3436 14.7909L14.2081 14.8678L14.455 14.4198L13.459 14.3353C13.2582 14.3169 13.1006 14.3015 12.9729 14.3391C12.9298 14.3514 12.8791 14.3776 12.8291 14.4122C12.8406 14.3584 12.8614 14.3053 12.8622 14.2508C12.8622 14.1655 12.8506 14.081 12.8244 14.0041C12.7668 13.8258 12.6398 13.6822 12.4476 13.5762C12.3045 13.497 12.1615 13.4563 12.0161 13.457ZM15.3332 9.17751L15.7193 8.88399L17.5583 11.2906L17.1722 11.5841L15.3332 9.17751ZM16.9976 7.99702L18.9589 6.97739L19.1496 7.34468L18.3867 7.74191L19.595 10.0602L19.165 10.2837L17.9559 7.96554L17.1892 8.36511L16.9976 7.99702ZM21.8888 6.05618L22.4002 5.91406L21.9888 7.93954L22.3218 9.08979L21.8596 9.22275L21.5342 8.08166L20.0944 6.58103L20.5928 6.43657L21.628 7.51459L21.8888 6.05618ZM31.1372 10.1958L32.6762 7.58719L34.1245 8.4393L33.9137 8.79664L32.8793 8.18727L32.4539 8.90956L33.4269 9.48204L33.2215 9.83163L32.2486 9.25841L31.5518 10.4402L31.1372 10.1958ZM38.9249 16.9412L40.0286 15.6219L40.2001 16.1444L39.3787 17.0834L40.5993 17.3577L40.7608 17.8495L39.0911 17.4461L37.9051 18.8661L37.7366 18.3528L38.6311 17.31L37.2929 17.005L37.1298 16.5086L38.9249 16.9412ZM38.0588 19.9166L41.0799 19.6707L41.2168 21.3443L40.803 21.3781L40.7061 20.1832L39.87 20.2508L39.9616 21.3758L39.5578 21.4088L39.4655 20.2839L38.098 20.3953L38.0588 19.9166ZM39.6337 24.9239C39.043 24.9239 38.3539 24.6027 38.3539 24.0079C38.3539 23.7928 38.4285 23.5031 38.6954 23.3095C38.8746 23.1789 39.1084 23.1097 39.3707 23.1097C39.6714 23.1097 40.2136 23.1943 40.4982 23.5861C40.5966 23.7214 40.6459 23.8781 40.6451 24.0448C40.6451 24.2769 40.5505 24.5528 40.302 24.7326C40.1259 24.8601 39.8937 24.9239 39.6337 24.9239ZM39.3945 22.6164C39.0446 22.6164 38.7223 22.7109 38.4677 22.8953C38.0109 23.2265 37.9278 23.7029 37.9278 23.9811C37.9278 25.0046 38.8899 25.4141 39.6129 25.4141C39.9606 25.4141 40.2782 25.3196 40.529 25.1383C41.0397 24.7695 41.0673 24.2139 41.0673 24.0356C41.0673 23.142 40.2459 22.6164 39.3945 22.6164ZM37.1637 15.0035C36.8914 15.0035 36.6461 14.8897 36.4769 14.6223C36.3899 14.4863 36.3484 14.3396 36.3477 14.1912C36.3453 13.8485 36.563 13.4974 36.9606 13.2454C37.2237 13.0786 37.4821 12.9964 37.7128 12.9972C38.0051 12.9972 38.2428 13.1255 38.4012 13.376C38.495 13.5235 38.5381 13.6803 38.5381 13.837C38.5381 14.1713 38.3258 14.4994 37.942 14.7422C37.6728 14.9128 37.4013 15.0035 37.1637 15.0035ZM37.6359 12.5361C37.3291 12.5361 37.0029 12.6337 36.6883 12.8327C36.1061 13.2023 35.8939 13.731 35.8939 14.1159C35.8939 14.3664 35.9623 14.6116 36.1054 14.8367C36.4284 15.3462 36.9137 15.4706 37.2414 15.4691C37.5544 15.4676 37.8844 15.3638 38.1951 15.1664C38.5704 14.9289 38.988 14.4878 38.988 13.89C38.988 13.6419 38.9173 13.3975 38.7735 13.1716C38.5081 12.7536 38.092 12.5361 37.6359 12.5361ZM29.2106 9.00047C28.9906 9.00047 28.6737 8.8929 28.4968 8.57018C28.4107 8.41342 28.373 8.2236 28.373 8.02689C28.373 7.48441 28.7345 6.7237 29.3952 6.7237C29.7659 6.7237 30.232 6.99958 30.232 7.68419C30.232 8.12064 29.9235 9.00047 29.2106 9.00047ZM29.3659 6.29955C28.7345 6.29955 28.1846 6.7245 27.9623 7.4798C27.9138 7.64731 27.8823 7.81328 27.8823 7.9739C27.8823 8.27665 27.933 8.51639 28.0576 8.74229C28.3376 9.25478 28.8506 9.42924 29.2405 9.42924C29.4613 9.42924 29.6736 9.37926 29.8682 9.27248C30.3796 8.99353 30.7173 8.34501 30.7173 7.72415C30.7173 7.45521 30.665 7.2009 30.545 6.98422C30.2989 6.53701 29.8435 6.29955 29.3659 6.29955ZM12.5779 17.2815L12.9847 17.3967L12.5256 19.0595L9.59216 18.2566L10.0928 16.5738L10.492 16.686L10.1236 17.8985L10.9327 18.1198L11.2442 17.0187L11.6349 17.1293L11.3242 18.2274L12.2387 18.4786L12.5779 17.2815ZM13.3473 10.955C13.7679 10.4832 14.1986 10.5162 14.1986 10.5162L14.2725 10.9157C14.2725 10.9157 13.9402 10.9265 13.6803 11.2169C13.5672 11.3438 13.5103 11.4759 13.5103 11.595C13.5103 11.6933 13.5488 11.7794 13.6257 11.8478C13.8356 12.0345 14.194 11.827 14.4186 11.7372C14.5917 11.6657 14.837 11.5658 15.0824 11.5658C15.2654 11.5658 15.4546 11.618 15.6277 11.7717C15.8292 11.9523 15.9307 12.1782 15.9307 12.4156C15.9307 12.6723 15.8307 12.9013 15.6292 13.1264C15.2424 13.559 14.7224 13.6059 14.7224 13.6059L14.6194 13.2009C14.9262 13.1302 15.1578 13.0127 15.2985 12.8552C15.4085 12.7315 15.4631 12.5932 15.4631 12.471C15.4631 12.3572 15.4154 12.2505 15.3216 12.1667C15.2462 12.0999 15.1539 12.0753 15.0539 12.0768C14.8585 12.0768 14.6255 12.189 14.4333 12.2689C14.0648 12.4202 13.6764 12.5432 13.3288 12.2328C13.1519 12.0753 13.0581 11.8762 13.0581 11.6557C13.0581 11.4229 13.1504 11.1755 13.3473 10.955ZM39.0429 28.3307C38.9068 28.3307 38.6745 28.2524 38.5868 28.0272C38.5654 27.9716 38.555 27.9124 38.5561 27.8528C38.5576 27.6868 38.6361 27.5139 38.7176 27.3334L38.7684 27.2166L39.6428 27.6092L39.5459 27.8428C39.3829 28.2124 39.2767 28.3299 39.0429 28.3307ZM37.2532 26.535L38.3999 27.0529L38.3423 27.182C38.1861 27.5339 38.1269 27.5915 37.6493 27.5931L36.7809 27.5938L36.5748 28.061L37.5747 28.0579C37.7777 28.0587 37.9346 28.0587 38.0584 28.0111C38.1044 27.9926 38.1474 27.9675 38.1861 27.9365C38.183 27.9619 38.1746 27.9872 38.1746 28.0134C38.1731 28.1248 38.1938 28.2347 38.2361 28.3315C38.373 28.6511 38.7453 28.8079 39.0191 28.8071C39.5013 28.8071 39.6859 28.519 39.9205 27.988C39.9289 27.9688 40.202 27.3395 40.202 27.3395L37.4462 26.0993L37.2532 26.535ZM36.7374 31.6793C36.4967 31.6793 36.2706 31.5863 36.0352 31.3988C35.7968 31.2091 35.5437 30.9125 35.5437 30.5336C35.5437 30.2708 35.6868 30.0196 35.9067 29.7445L36.1075 29.494L37.8388 30.874L37.7057 31.0392C37.385 31.4419 37.165 31.6793 36.7374 31.6793ZM35.6575 29.3995C35.343 29.7929 35.1046 30.1441 35.1046 30.5982C35.1046 30.9832 35.2799 31.4227 35.7229 31.7761C36.0167 32.0097 36.349 32.1373 36.692 32.1373C37.1135 32.1373 37.4511 32.0105 37.9765 31.3527L38.4556 30.7518L36.0867 28.8624L35.6575 29.3995Z" fill="white"/>
<path d="M35.3756 35.16C32.5544 36.1566 29.9217 36.0882 27.6759 35.5872C27.749 34.5853 28.1643 33.5141 28.7996 33.3151C33.7457 31.7822 37.3483 27.1749 37.3483 21.7439C37.3483 15.0643 31.8991 9.6302 25.2008 9.6302C18.5017 9.6302 13.0525 15.0643 13.0525 21.7439C13.0525 25.4598 14.7899 28.9898 17.7141 31.2781C17.0197 31.5831 16.4274 32.0764 15.999 32.6904C15.7775 32.539 15.5637 32.3831 15.366 32.2209L15.2553 32.3315C15.3876 32.4914 15.5929 32.7019 15.839 32.9378C15.4791 33.5425 15.2707 34.2472 15.2707 35.0002C15.2707 35.1177 15.2784 35.2338 15.2883 35.3475C10.9367 32.1787 8.35013 27.1418 8.35013 21.7439C8.35013 12.4625 15.9098 4.91074 25.2008 4.91074C34.4917 4.91074 42.0507 12.4625 42.0507 21.7439C42.0507 27.0604 39.618 31.9451 35.3756 35.16ZM25.6 39.1333C23.2719 39.1333 20.3661 38.3426 18.3695 37.1662C17.765 36.8097 17.0435 36.1458 17.0435 35.0132C17.0435 34.7066 17.1035 34.4146 17.2097 34.1464C17.955 34.7619 18.7256 35.339 19.2086 35.6026C19.3194 35.664 19.384 35.6932 19.5132 35.6932C19.8239 35.6932 20.0747 35.4412 20.0747 35.13C20.0747 34.8926 19.9455 34.6997 19.7324 34.6067C19.3194 34.4261 18.4556 34.0696 17.525 33.5878C17.955 33.02 18.6333 32.6519 19.3963 32.6519C19.7455 32.6519 20.0816 32.7264 20.3954 32.874L21.033 33.2451C23.0619 34.4838 28.2819 37.6588 34.5841 35.9137C32.1921 38.0706 29.2457 39.1333 25.6 39.1333ZM27.5959 40.5502C26.956 40.5502 26.4307 41.0028 26.4307 41.6974C26.4307 42.3774 26.9629 42.8446 27.5959 42.8446C27.692 42.8446 27.7843 42.8285 27.8736 42.8055C27.7397 43.7675 26.6183 44.844 25.1716 45.328C23.7364 44.8478 22.6158 43.7636 22.4674 42.8062C22.5559 42.8292 22.6473 42.8446 22.7435 42.8446C23.4334 42.8446 23.9087 42.3621 23.9087 41.6974C23.9087 41.0643 23.4103 40.5671 22.7681 40.5533C22.9642 40.1952 23.1527 39.8149 23.2911 39.4068C24.0864 39.5444 24.8709 39.6204 25.6 39.6204C26.1984 39.6204 26.7791 39.5874 27.3459 39.5306C27.4213 39.8586 27.5328 40.2013 27.6636 40.5556C27.6413 40.5548 27.6189 40.5502 27.5959 40.5502ZM19.3594 31.418C20.5577 31.418 21.6783 32.0319 22.3351 33.0155C21.7576 32.8691 21.1921 32.6785 20.6439 32.4453L20.6415 32.4484L20.6239 32.4384C20.2401 32.2574 19.8208 32.1639 19.3964 32.1649C18.4419 32.1649 17.5974 32.6321 17.0767 33.3474C16.8553 33.2252 16.637 33.0974 16.4221 32.964C17.0682 32.0319 18.1427 31.418 19.3594 31.418ZM24.1018 33.8062C23.9526 33.9168 23.8349 34.0482 23.7496 34.1934C23.3104 33.9798 22.7582 33.7055 22.3975 33.5034C22.9082 33.6164 23.5758 33.7593 24.1018 33.8062ZM27.7897 33.5779C27.4414 34.0751 27.2337 34.7667 27.1706 35.4666C26.07 35.1831 25.0709 34.802 24.1995 34.4047C24.3649 34.0843 24.8394 33.8576 25.2009 33.8576C26.0893 33.8576 26.9545 33.7593 27.7897 33.5779ZM25.2009 33.3705C24.4564 33.3705 23.7242 33.299 23.0066 33.1623C22.3136 31.8045 20.8931 30.9316 19.3594 30.9316C18.9826 30.9316 18.6196 30.9862 18.2726 31.0822C15.3246 28.8938 13.5664 25.413 13.5664 21.744C13.5664 15.3333 18.7857 10.1174 25.2009 10.1174C31.6162 10.1174 36.8354 15.3333 36.8354 21.744C36.8354 28.1546 31.6162 33.3705 25.2009 33.3705ZM19.3594 38.5825C17.3882 38.5825 15.7846 36.9758 15.7846 35.0003C15.7838 34.4032 15.9332 33.8156 16.2191 33.2914C16.4029 33.4581 16.5998 33.631 16.8036 33.8062C16.6306 34.1727 16.5306 34.5807 16.5306 35.0133C16.5306 36.0868 17.0728 36.9742 18.0988 37.5797C18.688 37.927 19.3556 38.2405 20.0616 38.5133C19.8304 38.5592 19.5952 38.5824 19.3594 38.5825ZM42.5646 21.744C42.5646 12.1936 34.7749 4.42444 25.2009 4.42444C15.6269 4.42444 7.83722 12.1936 7.83722 21.744C7.83722 27.4731 10.6691 32.8134 15.4139 36.0499C15.8807 37.7856 17.4705 39.0697 19.3594 39.0697C19.8701 39.0697 20.3662 38.9728 20.8369 38.7907C21.4752 39.0008 22.1252 39.1738 22.7836 39.3086C22.599 39.8342 22.3298 40.3336 22.0729 40.7647C22.0729 40.7647 22.0791 40.7632 22.0875 40.7616C22.0829 40.7647 22.0775 40.767 22.0729 40.7701L22.4344 41.132C22.5267 41.0813 22.6313 41.0506 22.7436 41.0506C23.1012 41.0506 23.3919 41.3402 23.3919 41.6975C23.3919 42.0548 23.1012 42.3453 22.7436 42.3453C22.4313 42.3453 22.1575 42.1455 22.0137 41.9319C22.0137 41.9319 21.9298 42.2231 21.9298 42.6073C21.9268 43.8513 23.2866 45.2728 25.1717 45.8722C27.0553 45.2859 28.4143 43.8544 28.4143 42.6096C28.4143 42.1808 28.3289 41.9319 28.3289 41.9319C28.1843 42.1063 27.9497 42.3453 27.5959 42.3453C27.2391 42.3453 26.9476 42.0548 26.9476 41.6975C26.9476 41.3402 27.2391 41.0506 27.5959 41.0506C27.7213 41.0506 27.8374 41.0874 27.9367 41.1497L28.2874 40.7985L28.3004 40.8023C28.102 40.3275 27.9574 39.8918 27.859 39.473C30.9809 39.0535 33.6151 37.7334 35.7086 35.5335L35.7079 35.5312C40.0648 32.2233 42.5646 27.2042 42.5646 21.744Z" fill="white"/>
</svg>
