<svg width="120" height="80" viewBox="0 0 120 80" fill="none" xmlns="http://www.w3.org/2000/svg">
<path d="M13.8722 18.5511V19.5438C16.6738 19.5438 17.6657 20.7695 17.6657 24.8552V45.8097C17.6657 50.2457 16.2067 51.0046 13.8718 51.0046V51.9977H25.896V51.0046C23.094 51.0046 22.1021 49.8374 22.1021 45.6932V36.3538C24.5538 36.6452 25.7791 36.7041 27.2385 36.7041C34.8267 36.7041 39.0301 33.611 39.0301 28.0655C39.0297 23.4542 35.2938 18.5511 26.0713 18.5511H13.8726H13.8722ZM22.1017 19.836H26.2462C32.375 19.836 34.3603 24.6218 34.3603 28.1824C34.3603 32.7352 31.2078 35.4207 26.2462 35.4207C24.495 35.4207 23.6192 35.3619 22.1017 34.8367V19.836ZM46.0335 30.7506C40.1973 30.7506 35.6437 35.6541 35.6437 41.8993C35.6437 48.1449 40.313 52.6393 46.7924 52.6393C50.4114 52.6393 52.8047 51.414 55.3145 48.2034V46.6848C52.3372 50.0123 50.8785 51.0042 48.0177 51.0042C45.2161 51.0042 39.671 48.6705 39.7871 39.3895H54.9639C55.256 34.6029 50.8197 30.7502 46.0331 30.7502L46.0335 30.7506ZM61.9089 30.7506L55.4883 31.393V32.3853C58.2899 32.3853 58.9334 32.9109 58.9334 35.4207V47.0361C58.9334 50.7712 58.2318 51.0046 55.4883 51.0046V51.9977H66.4036V51.0046C63.3099 51.0046 62.9019 50.1876 62.9019 47.0361V36.9378C64.9446 34.1943 66.7543 32.9105 68.7969 32.9105C71.0145 32.9105 73.4082 34.3115 73.4082 37.6387V48.4371C73.4082 50.3633 72.6489 51.0046 69.8477 51.0046V51.9977H91.6776V51.0046C88.5846 51.0046 88.1751 50.1876 88.1751 47.0361V36.9382C90.2186 34.1943 92.0271 32.9109 94.0709 32.9109C96.2885 32.9109 98.6822 34.3119 98.6822 37.6387V48.4371C98.6822 50.3633 97.924 51.0046 95.122 51.0046V51.9977H106.154V51.0046C103.235 51.0046 102.652 50.1884 102.652 47.5029V38.1635C102.652 33.202 99.0905 30.7506 95.6468 30.7506C93.0205 30.7506 90.6272 32.0932 88.1755 34.8951V30.7506H87.184L80.7626 31.3934V32.3857C83.565 32.3857 84.207 32.9109 84.207 35.4207V47.0361C84.207 50.7418 83.511 51.0001 80.8214 51.0039C77.9566 50.9927 77.3778 50.1694 77.3778 47.5029V38.1635C77.3778 33.202 73.8176 30.7506 70.3736 30.7506C67.7477 30.7506 65.354 32.0932 62.9027 34.8951V30.7506H61.9096H61.9089ZM45.5079 31.9763C48.135 31.9763 51.228 33.844 51.0523 38.3968H39.7871C40.0209 34.5445 42.0647 31.9763 45.5079 31.9763ZM58.6375 54.9333C58.3595 54.9333 57.1941 55.0788 56.8435 56.4895H56.2204L56.1616 56.7679H56.7906L55.843 61.4487H56.1412C56.5182 60.4423 57.0482 58.343 57.3728 56.7679H58.24L58.3986 56.6283L58.4254 56.4895H57.4528L57.5246 56.1712C57.6843 55.4566 57.9817 55.1849 58.3789 55.1849C58.6569 55.1849 58.8687 55.3907 58.961 55.5694L59.127 55.4893L59.2074 55.0524C59.1076 54.9597 58.7894 54.9333 58.6379 54.9333H58.6375ZM13.8462 55.1651V55.3375C14.4424 55.4104 14.4156 55.3769 14.4156 55.9929V57.9667C14.4156 59.1645 14.8526 59.8799 16.2633 59.8799C17.1175 59.8799 18.0249 59.3495 18.0249 57.9258V56.0592C18.0249 55.9204 18.051 55.8079 18.064 55.7019C18.0971 55.4629 18.3152 55.3699 18.6335 55.3371V55.1651H17.0706V55.3375C17.3818 55.3699 17.6066 55.4629 17.6401 55.7015C17.6531 55.8079 17.6799 55.9204 17.6799 56.0592V57.8994C17.6799 58.959 17.2027 59.5683 16.2957 59.5683C15.3089 59.5683 15.0577 58.8593 15.0577 57.9325V55.9933C15.0577 55.3769 15.0309 55.4104 15.6272 55.3375V55.1651H13.8462ZM61.2244 55.1651V55.3375C61.8207 55.4104 61.7942 55.3769 61.7942 55.9929V58.9728C61.7942 59.5881 61.8203 59.5557 61.2248 59.6286V59.8002H63.0054V59.6286C62.4099 59.5557 62.4363 59.5877 62.4363 58.9728V55.3766H62.8398C63.5823 55.3766 63.9389 55.7212 63.9389 56.4634C63.9389 57.1918 63.5555 57.6876 62.727 57.6746V57.8067C63.7405 57.867 64.6014 57.3504 64.6014 56.3971C64.6014 55.6017 64.058 55.1651 62.9589 55.1651H61.2244ZM38.9404 56.1627C38.3523 56.1627 37.8416 56.5252 37.8416 56.9849C37.8416 57.5417 38.184 57.7412 38.4602 57.9254C39.2269 58.4313 39.4045 58.7019 39.4045 59.0339C39.4045 59.4068 39.109 59.6826 38.7457 59.6826C38.3523 59.6826 37.9797 59.4582 37.9239 58.8917H37.7899V59.6264C37.7899 59.667 37.8062 59.6875 37.8271 59.6986C38.1054 59.807 38.4016 59.8622 38.7003 59.8613C39.314 59.8613 39.9368 59.5241 39.9368 58.917C39.9368 58.4923 39.7626 58.2321 39.2214 57.8287C38.71 57.4453 38.3526 57.2298 38.3526 56.8721C38.3526 56.4943 38.6176 56.3413 38.9147 56.3413C39.323 56.3413 39.5176 56.6279 39.5586 56.9849H39.6911V56.3149C39.6911 56.2896 39.6863 56.2702 39.6554 56.2591C39.4514 56.1883 39.1596 56.1623 38.94 56.1623L38.9404 56.1627ZM79.5258 56.1627C78.9377 56.1627 78.4278 56.5252 78.4278 56.9849C78.4278 57.5417 78.7695 57.7412 79.0456 57.9254C79.8128 58.4313 79.9911 58.7019 79.9911 59.0339C79.9911 59.4068 79.6944 59.6826 79.3322 59.6826C78.9385 59.6826 78.5659 59.4582 78.5097 58.8917H78.376V59.6264C78.376 59.667 78.3921 59.6875 78.4118 59.6986C78.6783 59.7999 78.9589 59.8613 79.2865 59.8613C79.8995 59.8613 80.5222 59.5241 80.5222 58.917C80.5222 58.4923 80.3491 58.2321 79.8068 57.8287C79.2961 57.4453 78.9381 57.2298 78.9381 56.8721C78.9381 56.4943 79.2042 56.3413 79.5001 56.3413C79.9088 56.3413 80.1038 56.6279 80.144 56.9849H80.2773V56.3149C80.2773 56.2896 80.2724 56.2702 80.2415 56.2591C80.0376 56.1883 79.7458 56.1623 79.5254 56.1623L79.5258 56.1627ZM93.4538 56.1627C93.0295 57.2912 92.4328 58.9617 92.2125 59.4113C92.1306 59.5799 91.9832 59.6674 91.8455 59.6674V59.8002H92.7745V59.6674C92.5501 59.6674 92.4522 59.4984 92.5192 59.2992L92.7537 58.6151H94.0568L94.2771 59.2739C94.359 59.4987 94.3285 59.667 94.0061 59.667V59.8002H95.1968V59.667C94.9772 59.667 94.895 59.504 94.7826 59.217C94.6087 58.7629 94.0873 57.1896 93.7404 56.1623L93.4538 56.1627ZM104.383 56.1627C103.959 57.2912 103.36 58.9617 103.141 59.4113C103.059 59.5799 102.911 59.6674 102.773 59.6674V59.8002H103.704V59.6674C103.478 59.6674 103.382 59.4984 103.448 59.2992L103.683 58.6151H104.987L105.205 59.2739C105.287 59.4987 105.257 59.667 104.935 59.667V59.8002H106.125V59.667C105.905 59.667 105.824 59.504 105.712 59.217C105.537 58.7629 105.017 57.1896 104.669 56.1623L104.383 56.1627ZM19.0876 56.2237V56.3566C19.379 56.3566 19.5379 56.5203 19.6809 56.7035V59.1109C19.6809 59.2177 19.66 59.3041 19.6496 59.386C19.6243 59.5702 19.4561 59.6428 19.2104 59.6674V59.8002H20.4625V59.6674C20.1253 59.6424 19.9515 59.5706 19.9258 59.386C19.9157 59.3041 19.8953 59.2177 19.8953 59.1109V56.8524C20.7283 57.8331 21.5709 58.8399 22.3831 59.8002H22.5569V56.9134C22.5569 56.8058 22.5778 56.7199 22.5882 56.638C22.6131 56.4537 22.7869 56.3823 23.0274 56.3566V56.2237H21.7753V56.3566C22.1125 56.3823 22.286 56.4534 22.3116 56.638C22.3221 56.7199 22.3422 56.8058 22.3422 56.9134V59.0138H22.3325C21.5713 58.0888 20.7793 57.1483 20.0177 56.2237H19.088H19.0876ZM24.0696 56.2237V56.3566C24.5292 56.4124 24.5088 56.3875 24.5088 56.8628V59.1612C24.5088 59.6365 24.5296 59.6112 24.0696 59.6674V59.8002H25.4445V59.6674C24.9845 59.6112 25.0046 59.6365 25.0046 59.1612V56.8624C25.0046 56.3875 24.9845 56.4128 25.4445 56.3566V56.2237H24.0696ZM26.231 56.2237V56.3566C26.4763 56.3566 26.6344 56.5155 26.8235 57.0619C27.1347 57.9303 27.4823 58.917 27.7939 59.8002H28.0548C28.4839 58.7532 28.9179 57.7103 29.3475 56.6633C29.4543 56.4079 29.6229 56.3566 29.7714 56.3566V56.2237H28.6674V56.3566C29.0147 56.3566 29.1476 56.5155 29.0199 56.8371C28.7028 57.6187 28.3916 58.4048 28.0648 59.1865C27.8075 58.435 27.5535 57.6824 27.3029 56.9287C27.1343 56.4388 27.339 56.3566 27.6197 56.3566V56.2237H26.231ZM30.5586 56.2237V56.3566C31.0183 56.4124 30.9978 56.3875 30.9978 56.8628V59.1612C30.9978 59.6365 31.0183 59.6112 30.5586 59.6674V59.8002H33.0718L33.2251 58.8809H33.0926C32.8581 59.428 32.8931 59.6365 32.1528 59.6365C31.6931 59.6365 31.4936 59.6007 31.4936 59.1671V58.0118H31.9224C32.2648 58.0118 32.3824 58.1912 32.3929 58.4919H32.525V57.4036H32.3929C32.3824 57.7207 32.2443 57.8484 31.9224 57.8484H31.4936V56.3871H32.1885C32.5563 56.3871 32.6586 56.6681 32.7096 57.0466H32.8421V56.2237H30.5586ZM34.0071 56.2237V56.3566C34.4672 56.4124 34.4463 56.3875 34.4463 56.8628V59.1612C34.4463 59.6365 34.4672 59.6112 34.0071 59.6674V59.8002H35.3813V59.6674C34.9213 59.6112 34.9421 59.6365 34.9421 59.1612V58.2161H35.4223C36.0401 59.2434 36.2039 59.8002 36.5057 59.8002H37.032V59.734C36.8534 59.6268 36.5672 59.2687 36.3118 58.8958L35.8108 58.1346C36.2043 57.9809 36.5262 57.6187 36.5262 57.0924C36.5262 56.495 36.01 56.2237 35.4941 56.2237H34.0071ZM40.8587 56.2237V56.3566C41.3191 56.4124 41.2979 56.3875 41.2979 56.8628V59.1612C41.2979 59.6365 41.3191 59.6112 40.8587 59.6674V59.8002H42.2329V59.6674C41.7736 59.6112 41.7944 59.6365 41.7944 59.1612V56.8624C41.7944 56.3875 41.7736 56.4128 42.2329 56.3566V56.2237H40.8587ZM43.0964 56.2237L42.9583 57.0053H43.0864C43.255 56.6681 43.3577 56.3871 43.8025 56.3871H44.261V59.1612C44.261 59.6365 44.2823 59.6108 43.8218 59.6674V59.8002H45.1975V59.667C44.7371 59.6112 44.7576 59.6365 44.7576 59.1612V56.3871H45.2169C45.6617 56.3871 45.764 56.6677 45.9323 57.005H46.0603L45.9222 56.2233L43.0964 56.2237ZM46.6536 56.2237V56.3566C46.8881 56.3566 47.031 56.4839 47.1996 56.8159L47.9868 58.3747V59.1612C47.9868 59.6365 48.0062 59.6112 47.5469 59.6674V59.8002H48.9218V59.6674C48.4625 59.6112 48.4819 59.6365 48.4819 59.1612V58.5898C48.4819 58.4618 48.4923 58.3185 48.5437 58.2161L49.396 56.6685C49.5345 56.4228 49.6722 56.3566 49.8151 56.3566V56.2237H48.7625V56.3566C49.064 56.3566 49.2278 56.5047 49.054 56.8159L48.3494 58.0985L47.73 56.8159C47.6031 56.5509 47.5677 56.3566 47.9556 56.3566V56.2237H46.6536ZM65.517 56.2237V56.3566C65.9771 56.4124 65.9566 56.3875 65.9566 56.8628V59.1612C65.9566 59.6365 65.9771 59.6112 65.517 59.6674V59.8002H68.0309L68.1843 58.8809H68.051C67.8165 59.428 67.8526 59.6365 67.1112 59.6365C66.6519 59.6365 66.4524 59.6007 66.4524 59.1671V58.0118H66.8816C67.224 58.0118 67.3416 58.1912 67.3513 58.4919H67.4842V57.4036H67.3513C67.3416 57.7207 67.2035 57.8484 66.8816 57.8484H66.4524V56.3871H67.1477C67.5154 56.3871 67.6167 56.6681 67.6673 57.0466H67.8013V56.2237H65.517ZM68.9451 56.2237V56.3566C69.2369 56.3566 69.3951 56.5203 69.5376 56.7035V59.1109C69.5376 59.2177 69.5179 59.3041 69.5071 59.386C69.4814 59.5702 69.3132 59.6428 69.069 59.6674V59.8002H70.3196V59.6674C69.982 59.6424 69.8093 59.5706 69.7836 59.386C69.7736 59.3041 69.7524 59.2177 69.7524 59.1109V56.8524C70.5854 57.8331 71.4284 58.8399 72.2406 59.8002H72.4144V56.9134C72.4144 56.8058 72.4353 56.7199 72.4457 56.638C72.4702 56.4537 72.6448 56.3823 72.8841 56.3566V56.2237H71.6328V56.3566C71.9711 56.3823 72.1442 56.4534 72.1695 56.638C72.1795 56.7199 72.2008 56.8058 72.2008 56.9134V59.0138H72.1892C71.4284 58.0888 70.6364 57.1483 69.8741 56.2237H68.9451ZM73.5232 56.2237V56.3566C73.8146 56.3566 73.9728 56.5203 74.1154 56.7035V59.1109C74.1154 59.2177 74.096 59.3041 74.0849 59.386C74.0592 59.5702 73.891 59.6428 73.6468 59.6674V59.8002H74.8978V59.6674C74.5606 59.6424 74.3871 59.5706 74.3614 59.386C74.3517 59.3041 74.3309 59.2177 74.3309 59.1109V56.8524C75.1635 57.8331 76.0062 58.8399 76.8184 59.8002H76.9922V56.9134C76.9922 56.8058 77.0127 56.7199 77.0234 56.638C77.048 56.4537 77.223 56.3823 77.4627 56.3566V56.2237H76.2105V56.3566C76.5489 56.3823 76.7223 56.4534 76.748 56.638C76.7577 56.7199 76.7785 56.8058 76.7785 56.9134V59.0138H76.7674C76.0066 58.0888 75.2153 57.1483 74.453 56.2237H73.5232ZM81.3105 56.2237V56.3566C81.5458 56.3566 81.6883 56.4839 81.8569 56.8159L82.6438 58.3747V59.1612C82.6438 59.6365 82.6642 59.6112 82.2038 59.6674V59.8002H83.5788V59.6674C83.1195 59.6112 83.1396 59.6365 83.1396 59.1612V58.5898C83.1396 58.4618 83.1492 58.3185 83.2006 58.2161L84.0541 56.6685C84.1914 56.4228 84.3295 56.3566 84.4735 56.3566V56.2237H83.4202V56.3566C83.7217 56.3566 83.8843 56.5047 83.7109 56.8159L83.0063 58.0985L82.3884 56.8159C82.2604 56.5509 82.2247 56.3566 82.6133 56.3566V56.2237H81.3105ZM85.3103 56.2237V56.3566C85.7711 56.4124 85.7498 56.3875 85.7498 56.8628V59.1612C85.7498 59.6365 85.7711 59.6112 85.3103 59.6674V59.8002H87.8189L87.973 58.8809H87.8443C87.6098 59.428 87.6407 59.6365 86.8992 59.6365C86.4451 59.6365 86.2456 59.6011 86.2456 59.2434V56.8624C86.2456 56.3875 86.2252 56.4128 86.6856 56.3566V56.2237H85.3099H85.3103ZM88.3661 56.2237V56.3566C88.6117 56.3566 88.7696 56.5155 88.9586 57.0619C89.2848 57.9739 89.6086 58.8866 89.9301 59.8002H90.1895C90.6194 58.7532 91.053 57.7103 91.4829 56.6633C91.5894 56.4079 91.7595 56.3566 91.9073 56.3566V56.2237H90.8029V56.3566C91.1517 56.3566 91.2838 56.5155 91.1558 56.8371C90.8394 57.6187 90.5267 58.4048 90.2003 59.1865C89.9432 58.4349 89.6892 57.6823 89.4384 56.9287C89.2698 56.4388 89.4753 56.3566 89.7563 56.3566V56.2237H88.3661ZM95.8363 56.2237V56.3566C96.1273 56.3566 96.2863 56.5203 96.4288 56.7035V59.1109C96.4288 59.2177 96.408 59.3041 96.3976 59.386C96.3719 59.5702 96.204 59.6428 95.9584 59.6674V59.8002H97.2105V59.6674C96.8732 59.6424 96.6998 59.5706 96.6741 59.386C96.6633 59.3041 96.6436 59.2177 96.6436 59.1109V56.8524C97.4751 57.8331 98.3196 58.8399 99.1318 59.8002H99.3049V56.9134C99.3049 56.8058 99.3261 56.7199 99.3361 56.638C99.3615 56.4537 99.5345 56.3823 99.7753 56.3566V56.2237H98.5232V56.3566C98.8605 56.3823 99.0343 56.4534 99.06 56.638C99.0704 56.7199 99.0905 56.8058 99.0905 56.9134V59.0138H99.0801C98.3193 58.0888 97.5276 57.1483 96.7664 56.2237H95.8363ZM100.614 56.2237V56.3566C101.073 56.4124 101.053 56.3875 101.053 56.8628V59.1612C101.053 59.6365 101.072 59.6112 100.614 59.6674V59.8002H101.987V59.6674C101.528 59.6112 101.548 59.6365 101.548 59.1612V56.8624C101.548 56.3875 101.528 56.4128 101.987 56.3566V56.2237H100.614ZM34.9414 56.3871H35.3344C35.7074 56.3871 36.0141 56.5818 36.0141 57.139C36.0141 57.7166 35.8093 58.0535 35.3649 58.0535H34.9414V56.3871ZM53.9946 56.4105C52.8892 56.4105 52.141 57.7084 52.141 58.576C52.141 59.198 52.3726 59.8803 53.2197 59.8803C54.4848 59.8803 55.067 58.3304 55.067 57.602C55.067 57.0065 54.876 56.4105 53.9946 56.4105ZM53.9358 56.5687C54.0415 56.5687 54.458 56.5948 54.458 57.2841C54.458 58.4357 54.0557 59.6811 53.3005 59.6811C52.8106 59.6811 52.7503 59.0588 52.7503 58.7149C52.7503 57.8532 53.2204 56.5687 53.9358 56.5687ZM93.4381 56.76H93.4478L93.9909 58.4212H92.8307L93.4381 56.76ZM104.367 56.76H104.378L104.918 58.4212H103.759L104.367 56.76Z" fill="white"/>
</svg>
