<svg width="34" height="20" viewBox="0 0 34 20" fill="none" xmlns="http://www.w3.org/2000/svg">
<path d="M16.4672 10.4619C17.9909 10.3982 21.0385 9.37239 21.0385 5.77876C21.0385 2.18513 17.9909 1.09558 16.4672 1C14.8704 1 11.6767 1.95575 11.6767 5.77876C11.6767 9.60177 14.8704 10.4938 16.4672 10.4619ZM16.4672 10.4619C18.0422 10.504 20.5075 11.101 22.3535 12.8134M16.4672 10.4619C13.7471 10.4619 11.8611 11.3827 10.5809 12.6687M8.1387 19C8.11375 17.2986 8.67809 14.5802 10.5809 12.6687M24.827 19C24.827 16.1078 23.7734 14.1306 22.3535 12.8134M26.2672 11.131C27.5509 11.131 29.3982 10.5448 29.3982 8.07257C29.3982 5.60035 27.6136 4.63186 26.2672 4.63186C24.733 4.63186 23.0736 5.3646 23.0736 8.07257C23.0736 10.5193 24.9835 11.131 26.2672 11.131ZM26.2672 11.131C28.2085 11.269 32.0909 12.6793 32.0909 17.2159M26.2672 11.131C24.1131 11.131 22.7605 12.2526 22.3535 12.8134M6.79237 11.0991C8.07608 11.0991 9.92337 10.5129 9.92337 8.04071C9.92337 5.5685 8.1387 4.6 6.79237 4.6C5.25817 4.6 3.59874 5.33274 3.59874 8.04071C3.59874 10.4874 5.50865 11.0991 6.79237 11.0991ZM6.79237 11.0991C4.86158 11.2903 1 12.7749 1 17.1841M6.79237 11.0991C8.59583 11.0991 10.0695 12.1455 10.5809 12.6687" stroke="#FFFFF0" stroke-width="2" stroke-linecap="round"/>
</svg>
