<svg width="144" height="30" viewBox="0 0 144 30" fill="none" xmlns="http://www.w3.org/2000/svg">
<path d="M79.0003 3.11529C80.161 1.10565 82.4984 0.0462514 84.7626 0.0261193C86.8286 -0.107424 89.1659 0.236389 90.6134 1.86978C89.8775 2.84037 89.174 3.83087 88.438 4.80124C87.6171 3.85928 86.942 2.53302 85.6157 2.26593C84.3096 1.86172 82.6681 2.54107 82.3284 3.94004C81.7783 6.15994 82.11 8.48073 82.0291 10.7452H86.2707V13.2724H82.025C82.025 17.0814 82.025 20.8902 82.021 24.6992C82.0049 25.7787 82.1787 26.8462 82.3809 27.9056C83.3513 28.3543 84.3986 28.5849 85.4701 28.6051C85.4661 28.8679 85.462 29.3976 85.458 29.6645C81.9886 29.4381 78.5153 29.3692 75.0501 29.6604C75.0501 29.4381 75.0582 28.9932 75.0582 28.7708C76.1538 28.5767 77.5125 28.0673 77.5568 26.7491C77.9816 22.2731 77.6944 17.7646 77.7794 13.2724C76.9343 13.2724 76.0892 13.2724 75.2441 13.2684C75.2481 12.8881 75.2561 12.5043 75.2602 12.1242C76.1174 11.7278 76.9544 11.2872 77.7792 10.8342C77.7792 8.23825 77.6253 5.43205 79.0003 3.11529ZM141.54 0.0220929C139.296 0.539489 137.023 0.976134 134.719 1.07724C134.694 1.28751 134.65 1.70805 134.629 1.91832C135.487 2.17691 136.886 2.10846 136.946 3.3052C137.29 5.73157 137.048 8.19351 137.116 10.6355C133.813 10.0696 130.121 10.1061 127.311 12.1642C124.234 14.3193 123.179 18.3388 123.486 21.9214C123.66 24.6992 125.051 27.5499 127.57 28.9044C130.57 30.5541 134.407 30.2143 137.218 28.3138C137.238 28.876 137.25 29.4379 137.254 30C139.429 29.4461 141.653 29.1348 143.889 29.0052V28.0347C140.72 27.4949 141.597 26.0284 141.374 23.5347C141.378 15.6986 141.257 7.8582 141.54 0.0225402V0.0220929ZM133.319 12.6586C134.657 12.6443 136.018 13.0718 137.117 13.8178C137.121 18.035 137.108 22.2522 137.125 26.4697C134.771 27.5492 131.589 27.4723 129.745 25.475C128.164 23.7848 127.897 21.3103 128.039 19.1025C128.197 17.0928 128.618 14.7962 130.372 13.5505C131.251 12.9474 132.278 12.6691 133.319 12.6582L133.319 12.6586ZM8.15454 2.59767C10.8191 2.43594 13.4918 2.60975 16.1282 2.98174C15.9705 4.85784 15.9866 6.74623 16.1322 8.62233C15.8772 8.62233 15.3679 8.62635 15.1133 8.62635C14.9111 7.45377 14.7008 6.03042 13.4513 5.50878C11.5994 4.72832 9.43203 4.6516 7.51143 5.20948C5.0005 5.95347 4.58801 9.64907 6.45605 11.2625C8.79317 13.3086 11.656 14.647 14.0497 16.6322C17.7978 19.6163 17.3089 26.563 12.861 28.6534C9.11685 30.3841 4.72156 29.9474 0.855957 28.8596C0.880116 27.0008 0.811443 25.1419 0.72644 23.2853C1.00538 23.2812 1.56752 23.2691 1.85049 23.2651C2.04868 24.4337 2.23076 25.8689 3.41543 26.4715C5.534 27.6602 8.26728 27.7573 10.4673 26.7343C13.2129 25.2179 12.7073 20.8349 10.1396 19.359C7.91161 17.6433 5.35214 16.375 3.29396 14.4378C1.01344 12.319 0.730467 8.60712 2.19833 5.95862C3.3991 3.84787 5.82122 2.79273 8.15431 2.59856L8.15454 2.59767ZM23.9679 6.57243C24.1782 6.58451 24.6027 6.60464 24.813 6.61672C24.809 8.02798 24.809 9.43522 24.809 10.8463H31.2786V13.2724H24.809C24.8334 16.6689 24.7564 20.0695 24.8454 23.47C24.9345 24.7641 24.9707 26.3773 26.1798 27.1699C27.7042 28.0758 29.5277 27.5096 31.0522 26.9153C31.5213 28.0635 30.3285 28.7064 29.4995 29.1835C27.5546 30.1257 25.1812 30.2268 23.1716 29.4426C21.4532 28.7994 20.6242 26.9193 20.5351 25.1969C20.3289 21.2262 20.5351 17.2476 20.5676 13.2729H18.0401L18.0278 12.4803C20.7736 11.4451 22.6253 9.07933 23.9679 6.57243ZM41.2816 10.2047C38.3666 10.175 35.4267 11.6229 34.4901 14.5501C34.7446 14.6955 35.2623 14.9825 35.5211 15.1281C36.6411 13.1507 39.2572 12.1361 41.3191 13.2764C42.9364 14.0124 43.0742 15.9894 43.042 17.5382C40.4986 18.3549 37.8662 18.998 35.4645 20.195C32.5856 21.7154 32.2136 26.0255 34.2758 28.3586C36.706 30.5865 40.7615 30.2264 43.163 28.1199C43.8949 29.5672 45.6256 30.1215 47.1335 29.6969C48.4477 29.4419 49.317 28.3465 50.1784 27.4204C50.0285 27.2504 49.7257 26.9068 49.576 26.7328C49.0342 26.8703 48.4236 27.2987 47.8939 26.8826C47.2065 26.4093 47.2912 25.4591 47.2429 24.7274C47.2912 21.5897 47.465 18.4439 47.2993 15.3024C47.2185 13.6768 46.4906 12.0148 45.0512 11.1617C43.9267 10.5376 42.6067 10.2184 41.2816 10.2047ZM42.9973 19.9885C43.0134 22.103 42.9973 24.2178 43.0136 26.3324C41.6589 26.935 40.0497 27.4931 38.6223 26.8017C36.8755 25.8716 36.9484 23.09 38.3919 21.9214C39.7788 20.9671 41.4243 20.5182 42.9973 19.9885Z" fill="white"/>
<path d="M97.0096 10.2845C94.8789 10.3086 92.6789 10.8383 91.0131 12.2252C88.5344 14.2308 87.4591 17.5464 87.5683 20.6597C87.556 23.3243 88.3847 26.167 90.4836 27.9381C92.9621 30.0974 96.5649 30.3115 99.65 29.6686C102.905 28.9528 105.351 26.1023 106.043 22.908C106.787 19.5925 106.475 15.7392 104.195 13.0625C102.44 11.0086 99.6299 10.2319 97.0098 10.2845H97.0096ZM97.038 12.5475C98.1833 12.5699 99.3163 13.0401 100.05 13.9519C101.38 15.5812 101.736 17.773 101.833 19.8188C101.85 22.0468 101.567 24.4524 100.163 26.2719C98.7848 28.0549 95.8128 28.2531 94.2237 26.6477C93.0068 25.5198 92.5536 23.8419 92.2787 22.2649C91.9917 20.1705 92.0647 17.9908 92.7239 15.9731C93.1847 14.6227 94.0821 13.256 95.5055 12.7949C95.9971 12.62 96.5165 12.536 97.0382 12.5471L97.038 12.5475ZM51.6988 11.5702C53.9594 11.5338 56.252 11.2994 58.3384 10.3652C58.4111 10.903 58.4677 11.4407 58.5122 11.9865C60.9099 10.4178 64.0071 9.80711 66.7527 10.7777C68.7178 11.4367 70.0924 13.3613 70.2665 15.3992C70.6707 19.2771 70.0844 23.2073 70.602 27.0769C70.6586 28.2938 71.9687 28.5689 72.919 28.7671C72.923 28.9935 72.923 29.4463 72.927 29.6729C69.7166 29.4179 63.2875 29.6606 63.2875 29.6606L63.2754 28.7439C63.2754 28.7439 65.5944 28.0918 65.7419 27.4245C66.2716 24.5456 66.1463 21.5697 66.1179 18.6462C66.0127 16.8994 66.0573 14.716 64.3874 13.6526C62.5961 12.6214 60.4006 13.0987 58.569 13.7658C58.5811 17.5506 58.569 21.339 58.569 25.1239C58.6216 26.135 58.5489 27.2872 59.2079 28.128C59.7617 28.5124 60.4572 28.581 61.092 28.7589C61.096 28.9855 61.1001 29.4422 61.1001 29.6726C57.9339 29.4666 54.76 29.3331 51.5979 29.6686C51.5979 29.4422 51.606 28.9935 51.606 28.7709C52.5683 28.5486 53.8379 28.2453 54.0198 27.081C54.4605 24.2911 54.1209 21.4404 54.226 18.6261C54.1858 17.0207 54.3636 15.3954 54.0806 13.8101C53.8581 12.7265 52.5358 12.7871 51.7028 12.573C51.7028 12.3223 51.6988 11.821 51.6988 11.5702ZM108.201 11.4852C110.465 11.4528 112.73 11.1455 114.881 10.4218L114.941 12.0876C117.117 10.3368 120.396 9.89211 122.713 11.6268L120.297 15.3139C119.169 13.5754 116.88 13.1549 115.073 14.0402C115.073 14.0402 115.061 21.6945 115.085 25.5196C115.178 26.3727 115.045 27.4807 115.845 28.0386C116.618 28.4915 117.556 28.4672 118.417 28.6045C118.417 28.8676 118.413 29.4013 118.413 29.6641C114.939 29.4295 111.458 29.3809 107.985 29.6561L107.984 28.6047C109.104 28.4137 110.269 28.0265 110.439 27.3592C110.92 25.7135 110.686 23.9708 110.734 22.2765C110.686 19.5795 110.831 16.8784 110.669 14.1856C110.657 12.8757 109.173 12.7585 108.211 12.5683C108.213 12.197 108.205 11.8156 108.203 11.4848L108.201 11.4852Z" fill="white"/>
</svg>
