<svg width="24" height="24" viewBox="0 0 24 24" fill="none" xmlns="http://www.w3.org/2000/svg">
<path d="M0.999999 14C0.999999 14.5304 1.21071 15.0391 1.58579 15.4142C1.96086 15.7893 2.46957 16 3 16L9.32 16L8.36 20.57C8.34 20.67 8.33 20.78 8.33 20.89C8.33 21.3 8.5 21.68 8.77 21.95L9.83 23L16.41 16.42C16.78 16.05 17 15.55 17 15L17 5C17 4.46957 16.7893 3.96086 16.4142 3.58579C16.0391 3.21071 15.5304 3 15 3L6 3C5.17 3 4.46 3.5 4.16 4.22L1.14 11.27C1.05 11.5 0.999999 11.74 0.999999 12L0.999999 14ZM23 3L19 3L19 15L23 15L23 3Z" fill="white"/>
</svg>
