<svg width="24" height="24" viewBox="0 0 24 24" fill="none" xmlns="http://www.w3.org/2000/svg">
<path d="M12 2C10.0222 2 8.08879 2.58649 6.4443 3.6853C4.79981 4.78412 3.51809 6.3459 2.76121 8.17316C2.00433 10.0004 1.8063 12.0111 2.19215 13.9509C2.578 15.8907 3.53041 17.6725 4.92894 19.0711C6.32746 20.4696 8.10929 21.422 10.0491 21.8079C11.9889 22.1937 13.9996 21.9957 15.8268 21.2388C17.6541 20.4819 19.2159 19.2002 20.3147 17.5557C21.4135 15.9112 22 13.9778 22 12C22 10.6868 21.7413 9.38642 21.2388 8.17316C20.7362 6.95991 19.9997 5.85752 19.0711 4.92893C18.1425 4.00035 17.0401 3.26375 15.8268 2.7612C14.6136 2.25866 13.3132 2 12 2ZM17.676 10.237L11.676 15.737C11.486 15.9112 11.2362 16.0053 10.9785 15.9997C10.7208 15.9941 10.4752 15.8893 10.293 15.707L7.293 12.707C7.19749 12.6148 7.12131 12.5044 7.0689 12.3824C7.01649 12.2604 6.98891 12.1292 6.98775 11.9964C6.9866 11.8636 7.0119 11.7319 7.06218 11.609C7.11246 11.4861 7.18672 11.3745 7.28061 11.2806C7.3745 11.1867 7.48615 11.1125 7.60905 11.0622C7.73195 11.0119 7.86363 10.9866 7.99641 10.9877C8.12918 10.9889 8.2604 11.0165 8.38241 11.0689C8.50441 11.1213 8.61476 11.1975 8.707 11.293L11.03 13.616L16.324 8.763C16.5195 8.58371 16.7781 8.48942 17.0431 8.50086C17.3081 8.5123 17.5577 8.62853 17.737 8.824C17.9163 9.01946 18.0106 9.27814 17.9991 9.54313C17.9877 9.80812 17.8715 10.0577 17.676 10.237Z" fill="#6EFF49"/>
</svg>
